<?xml version="1.0" encoding="UTF-8" standalone="no"?>
<!-- Created with Inkscape (http://www.inkscape.org/) -->

<svg
   version="1.1"
   id="svg1"
   width="868.19196"
   height="329.21332"
   viewBox="0 0 868.19199 329.21332"
   sodipodi:docname="Logo_Perfect_Look copy.pdf"
   xmlns:inkscape="http://www.inkscape.org/namespaces/inkscape"
   xmlns:sodipodi="http://sodipodi.sourceforge.net/DTD/sodipodi-0.dtd"
   xmlns="http://www.w3.org/2000/svg"
   xmlns:svg="http://www.w3.org/2000/svg">
  <defs
     id="defs1">
    <clipPath
       clipPathUnits="userSpaceOnUse"
       id="clipPath2">
      <path
         d="M 0,673.293 H 869.066 V 0 H 0 Z"
         transform="translate(-258.91851,-486.63331)"
         id="path2" />
    </clipPath>
    <clipPath
       clipPathUnits="userSpaceOnUse"
       id="clipPath4">
      <path
         d="M 0,673.293 H 869.066 V 0 H 0 Z"
         transform="translate(-302.53561,-487.30711)"
         id="path4" />
    </clipPath>
    <clipPath
       clipPathUnits="userSpaceOnUse"
       id="clipPath6">
      <path
         d="M 0,673.293 H 869.066 V 0 H 0 Z"
         transform="translate(-315.64501,-469.29641)"
         id="path6" />
    </clipPath>
    <clipPath
       clipPathUnits="userSpaceOnUse"
       id="clipPath8">
      <path
         d="M 0,673.293 H 869.066 V 0 H 0 Z"
         transform="translate(-347.62261,-469.29641)"
         id="path8" />
    </clipPath>
    <clipPath
       clipPathUnits="userSpaceOnUse"
       id="clipPath10">
      <path
         d="M 0,673.293 H 869.066 V 0 H 0 Z"
         transform="translate(-394.48681,-487.30711)"
         id="path10" />
    </clipPath>
    <clipPath
       clipPathUnits="userSpaceOnUse"
       id="clipPath12">
      <path
         d="M 0,673.293 H 869.066 V 0 H 0 Z"
         transform="translate(-424.50441,-468.68411)"
         id="path12" />
    </clipPath>
    <clipPath
       clipPathUnits="userSpaceOnUse"
       id="clipPath14">
      <path
         d="M 0,673.293 H 869.066 V 0 H 0 Z"
         transform="translate(-453.54151,-468.68411)"
         id="path14" />
    </clipPath>
    <clipPath
       clipPathUnits="userSpaceOnUse"
       id="clipPath16">
      <path
         d="M 0,673.293 H 869.066 V 0 H 0 Z"
         transform="translate(-478.96341,-469.29641)"
         id="path16" />
    </clipPath>
    <clipPath
       clipPathUnits="userSpaceOnUse"
       id="clipPath18">
      <path
         d="M 0,673.293 H 869.066 V 0 H 0 Z"
         transform="translate(-536.11961,-469.29641)"
         id="path18" />
    </clipPath>
    <clipPath
       clipPathUnits="userSpaceOnUse"
       id="clipPath20">
      <path
         d="M 0,673.293 H 869.066 V 0 H 0 Z"
         transform="translate(-573.67141,-469.29641)"
         id="path20" />
    </clipPath>
    <clipPath
       clipPathUnits="userSpaceOnUse"
       id="clipPath22">
      <path
         d="M 0,673.293 H 869.066 V 0 H 0 Z"
         transform="translate(-593.45752,-469.29641)"
         id="path22" />
    </clipPath>
    <clipPath
       clipPathUnits="userSpaceOnUse"
       id="clipPath24">
      <path
         d="M 0,673.293 H 869.066 V 0 H 0 Z"
         transform="translate(-355.61081,-430.44481)"
         id="path24" />
    </clipPath>
    <clipPath
       clipPathUnits="userSpaceOnUse"
       id="clipPath26">
      <path
         d="M 0,673.293 H 869.066 V 0 H 0 Z"
         transform="translate(-375.04051,-438.86041)"
         id="path26" />
    </clipPath>
    <clipPath
       clipPathUnits="userSpaceOnUse"
       id="clipPath28">
      <path
         d="M 0,673.293 H 869.066 V 0 H 0 Z"
         transform="translate(-385.10991,-430.41501)"
         id="path28" />
    </clipPath>
    <clipPath
       clipPathUnits="userSpaceOnUse"
       id="clipPath30">
      <path
         d="M 0,673.293 H 869.066 V 0 H 0 Z"
         transform="translate(-402.91551,-430.00151)"
         id="path30" />
    </clipPath>
    <clipPath
       clipPathUnits="userSpaceOnUse"
       id="clipPath32">
      <path
         d="M 0,673.293 H 869.066 V 0 H 0 Z"
         transform="translate(-419.42241,-430.00151)"
         id="path32" />
    </clipPath>
    <clipPath
       clipPathUnits="userSpaceOnUse"
       id="clipPath34">
      <path
         d="M 0,673.293 H 869.066 V 0 H 0 Z"
         transform="translate(-423.64401,-423.50541)"
         id="path34" />
    </clipPath>
    <clipPath
       clipPathUnits="userSpaceOnUse"
       id="clipPath36">
      <path
         d="M 0,673.293 H 869.066 V 0 H 0 Z"
         transform="translate(-451.63721,-430.00151)"
         id="path36" />
    </clipPath>
    <clipPath
       clipPathUnits="userSpaceOnUse"
       id="clipPath38">
      <path
         d="M 0,673.293 H 869.066 V 0 H 0 Z"
         transform="translate(-464.71831,-430.00151)"
         id="path38" />
    </clipPath>
    <clipPath
       clipPathUnits="userSpaceOnUse"
       id="clipPath40">
      <path
         d="M 0,673.293 H 869.066 V 0 H 0 Z"
         transform="translate(-475.96831,-430.00151)"
         id="path40" />
    </clipPath>
    <clipPath
       clipPathUnits="userSpaceOnUse"
       id="clipPath42">
      <path
         d="M 0,673.293 H 869.066 V 0 H 0 Z"
         transform="translate(-493.80321,-430.44481)"
         id="path42" />
    </clipPath>
    <clipPath
       clipPathUnits="userSpaceOnUse"
       id="clipPath44">
      <path
         d="M 0,673.293 H 869.066 V 0 H 0 Z"
         transform="translate(-507.97801,-449.31351)"
         id="path44" />
    </clipPath>
    <clipPath
       clipPathUnits="userSpaceOnUse"
       id="clipPath46">
      <path
         d="M 0,673.293 H 869.066 V 0 H 0 Z"
         transform="translate(-520.55621,-430.29691)"
         id="path46" />
    </clipPath>
    <clipPath
       clipPathUnits="userSpaceOnUse"
       id="clipPath48">
      <path
         d="M 0,673.293 H 869.066 V 0 H 0 Z"
         transform="translate(-390.43901,-574.85501)"
         id="path48" />
    </clipPath>
    <clipPath
       clipPathUnits="userSpaceOnUse"
       id="clipPath50">
      <path
         d="M 0,673.293 H 869.066 V 0 H 0 Z"
         transform="translate(-464.01611,-557.33542)"
         id="path50" />
    </clipPath>
    <clipPath
       clipPathUnits="userSpaceOnUse"
       id="clipPath52">
      <path
         d="M 0,673.293 H 869.066 V 0 H 0 Z"
         transform="translate(-436.51031,-629.62792)"
         id="path52" />
    </clipPath>
    <clipPath
       clipPathUnits="userSpaceOnUse"
       id="clipPath54">
      <path
         d="M 0,673.293 H 869.066 V 0 H 0 Z"
         id="path54" />
    </clipPath>
  </defs>
  <sodipodi:namedview
     id="namedview1"
     pagecolor="#505050"
     bordercolor="#ffffff"
     borderopacity="1"
     inkscape:showpageshadow="0"
     inkscape:pageopacity="0"
     inkscape:pagecheckerboard="1"
     inkscape:deskcolor="#505050">
    <inkscape:page
       x="8.1101674e-16"
       y="0"
       width="868.19202"
       height="329.21332"
       id="page2"
       margin="0"
       bleed="0" />
  </sodipodi:namedview>
  <g
     id="layer-MC0"
     inkscape:groupmode="layer"
     inkscape:label="Layer 1"
     transform="translate(-148.20399,-31.525354)">
    <path
       id="path1"
       d="M 0,0 C 1.511,0 2.797,0.234 3.859,0.705 4.922,1.173 5.79,1.93 6.463,2.971 7.138,4.013 7.628,5.35 7.934,6.984 c 0.306,1.633 0.459,3.614 0.459,5.942 0,3.103 -0.246,5.595 -0.736,7.473 -0.489,1.879 -1.285,3.247 -2.388,4.105 -1.103,0.858 -2.553,1.286 -4.35,1.286 H -1.47 V 0 Z m -16.846,-17.337 v 0.613 h 2.573 c 0.613,0 1.153,0.092 1.624,0.276 0.468,0.183 0.836,0.56 1.102,1.133 0.265,0.571 0.399,1.429 0.399,2.573 v 34.796 c 0,1.102 -0.145,1.919 -0.43,2.45 -0.285,0.53 -0.664,0.878 -1.133,1.041 -0.471,0.163 -0.99,0.245 -1.562,0.245 h -2.573 v 0.613 H 1.961 c 5.676,0 9.883,-1.164 12.619,-3.492 2.736,-2.328 4.105,-5.493 4.105,-9.495 0,-1.838 -0.328,-3.594 -0.981,-5.269 C 17.051,6.473 16.021,4.972 14.611,3.645 13.202,2.317 11.343,1.276 9.036,0.521 6.729,-0.235 3.921,-0.612 0.612,-0.612 H -1.47 v -12.436 c 0,-1.063 0.154,-1.859 0.46,-2.39 0.306,-0.531 0.704,-0.878 1.195,-1.041 0.489,-0.164 1.019,-0.245 1.592,-0.245 h 3.737 v -0.613 z"
       style="fill:#231f20;fill-opacity:1;fill-rule:nonzero;stroke:none"
       transform="matrix(1.3333333,0,0,-1.3333333,345.22467,248.8796)"
       clip-path="url(#clipPath2)" />
    <path
       id="path3"
       d="m 0,0 c 0,3.716 -0.144,6.667 -0.43,8.852 -0.285,2.185 -0.796,3.757 -1.53,4.717 -0.735,0.959 -1.758,1.44 -3.063,1.44 -1.308,0 -2.39,-0.481 -3.248,-1.44 -0.857,-0.96 -1.48,-2.532 -1.868,-4.717 C -10.527,6.667 -10.742,3.716 -10.782,0 Z m -4.043,-18.623 c -5.311,0 -9.333,1.479 -12.069,4.441 -2.736,2.961 -4.104,7.096 -4.104,12.406 0,5.758 1.326,10.097 3.982,13.017 2.654,2.92 6.391,4.381 11.211,4.381 4.45,0 7.953,-1.247 10.505,-3.737 2.552,-2.492 3.83,-6.168 3.83,-11.028 v -1.469 h -20.094 c 0,-4.126 0.275,-7.465 0.827,-10.017 0.552,-2.553 1.429,-4.41 2.634,-5.574 1.205,-1.164 2.766,-1.746 4.686,-1.746 1.43,0 2.727,0.306 3.891,0.919 1.163,0.612 2.143,1.592 2.94,2.94 0.797,1.348 1.317,3.145 1.562,5.391 0.817,-0.163 1.398,-0.511 1.746,-1.041 0.347,-0.531 0.52,-1.145 0.52,-1.838 0,-1.144 -0.449,-2.257 -1.347,-3.339 -0.899,-1.083 -2.236,-1.971 -4.013,-2.665 -1.775,-0.693 -4.012,-1.041 -6.707,-1.041"
       style="fill:#231f20;fill-opacity:1;fill-rule:nonzero;stroke:none"
       transform="matrix(1.3333333,0,0,-1.3333333,403.3808,247.9812)"
       clip-path="url(#clipPath4)" />
    <path
       id="path5"
       d="m 0,0 v 0.613 h 0.551 c 0.613,0 1.256,0.092 1.93,0.276 0.673,0.183 1.246,0.56 1.715,1.132 C 4.665,2.593 4.9,3.451 4.9,4.595 v 23.891 c 0,1.103 -0.244,1.919 -0.734,2.451 -0.49,0.53 -1.072,0.877 -1.746,1.041 -0.674,0.163 -1.297,0.245 -1.869,0.245 H 0.306 v 0.613 h 13.907 v -5.269 h 0.122 c 0.448,1.348 1.041,2.46 1.776,3.339 0.736,0.878 1.663,1.541 2.788,1.991 1.122,0.449 2.44,0.674 3.952,0.674 2.286,0 4.032,-0.47 5.237,-1.409 1.204,-0.94 1.808,-2.246 1.808,-3.921 0,-1.756 -0.696,-3.124 -2.084,-4.104 -1.388,-0.98 -3.289,-1.47 -5.697,-1.47 0,3.103 -0.306,5.237 -0.919,6.401 -0.613,1.164 -1.491,1.746 -2.634,1.746 -0.613,0 -1.185,-0.164 -1.715,-0.49 -0.532,-0.327 -0.991,-0.868 -1.378,-1.623 -0.39,-0.757 -0.696,-1.757 -0.919,-3.002 -0.226,-1.246 -0.337,-2.808 -0.337,-4.686 V 4.595 c 0,-1.144 0.234,-2.002 0.704,-2.574 0.469,-0.572 1.051,-0.949 1.746,-1.132 0.693,-0.184 1.327,-0.276 1.899,-0.276 h 1.899 V 0 Z"
       style="fill:#231f20;fill-opacity:1;fill-rule:nonzero;stroke:none"
       transform="matrix(1.3333333,0,0,-1.3333333,420.86,271.99547)"
       clip-path="url(#clipPath6)" />
    <path
       id="path7"
       d="m 0,0 v 0.613 h 1.348 c 0.613,0 1.256,0.092 1.929,0.276 0.674,0.183 1.245,0.56 1.716,1.132 0.469,0.572 0.704,1.43 0.704,2.574 V 32.223 H 0.245 v 0.613 h 5.452 v 2.267 c 0,3.797 1.011,6.748 3.032,8.852 2.022,2.103 5.503,3.154 10.446,3.154 2.245,0 4.043,-0.204 5.39,-0.612 1.348,-0.409 2.329,-0.95 2.941,-1.623 0.613,-0.674 0.919,-1.461 0.919,-2.359 0,-0.858 -0.277,-1.573 -0.827,-2.144 -0.552,-0.573 -1.389,-1.001 -2.512,-1.287 -1.123,-0.286 -2.522,-0.429 -4.196,-0.429 0,2.981 -0.214,5.033 -0.644,6.158 -0.428,1.122 -1.194,1.684 -2.297,1.684 -1.102,0 -1.868,-0.531 -2.297,-1.593 -0.428,-1.062 -0.643,-3.002 -0.643,-5.82 v -6.248 h 8.454 V 32.223 H 15.009 V 4.595 c 0,-1.144 0.234,-2.002 0.704,-2.574 0.47,-0.572 1.052,-0.949 1.746,-1.132 0.694,-0.184 1.327,-0.276 1.899,-0.276 h 2.879 V 0 Z"
       style="fill:#231f20;fill-opacity:1;fill-rule:nonzero;stroke:none"
       transform="matrix(1.3333333,0,0,-1.3333333,463.4968,271.99547)"
       clip-path="url(#clipPath8)" />
    <path
       id="path9"
       d="m 0,0 c 0,3.716 -0.144,6.667 -0.429,8.852 -0.286,2.185 -0.797,3.757 -1.531,4.717 -0.735,0.959 -1.757,1.44 -3.063,1.44 -1.308,0 -2.389,-0.481 -3.248,-1.44 -0.857,-0.96 -1.48,-2.532 -1.868,-4.717 C -10.527,6.667 -10.741,3.716 -10.782,0 Z m -4.043,-18.623 c -5.31,0 -9.333,1.479 -12.068,4.441 -2.737,2.961 -4.105,7.096 -4.105,12.406 0,5.758 1.326,10.097 3.982,13.017 2.655,2.92 6.391,4.381 11.211,4.381 4.451,0 7.953,-1.247 10.505,-3.737 2.552,-2.492 3.83,-6.168 3.83,-11.028 v -1.469 h -20.094 c 0,-4.126 0.276,-7.465 0.827,-10.017 0.552,-2.553 1.43,-4.41 2.635,-5.574 1.204,-1.164 2.765,-1.746 4.685,-1.746 1.43,0 2.727,0.306 3.891,0.919 1.164,0.612 2.143,1.592 2.94,2.94 0.796,1.348 1.318,3.145 1.563,5.391 0.816,-0.163 1.398,-0.511 1.746,-1.041 0.347,-0.531 0.52,-1.145 0.52,-1.838 0,-1.144 -0.45,-2.257 -1.347,-3.339 -0.9,-1.083 -2.237,-1.971 -4.014,-2.665 -1.775,-0.693 -4.012,-1.041 -6.707,-1.041"
       style="fill:#231f20;fill-opacity:1;fill-rule:nonzero;stroke:none"
       transform="matrix(1.3333333,0,0,-1.3333333,525.9824,247.9812)"
       clip-path="url(#clipPath10)" />
    <path
       id="path11"
       d="m 0,0 c -3.022,0 -5.687,0.542 -7.995,1.623 -2.308,1.082 -4.095,2.858 -5.359,5.33 -1.267,2.471 -1.9,5.789 -1.9,9.955 0,4.41 0.652,7.872 1.96,10.384 1.307,2.511 3.114,4.297 5.422,5.359 2.307,1.062 4.951,1.594 7.934,1.594 2.49,0 4.614,-0.276 6.371,-0.828 1.755,-0.551 3.102,-1.327 4.043,-2.327 0.938,-1.002 1.408,-2.155 1.408,-3.462 0,-0.776 -0.214,-1.552 -0.643,-2.327 -0.428,-0.777 -1.216,-1.42 -2.358,-1.93 -1.145,-0.512 -2.778,-0.766 -4.902,-0.766 0,2.818 -0.122,5.023 -0.367,6.616 -0.245,1.593 -0.684,2.726 -1.317,3.4 -0.633,0.674 -1.501,1.011 -2.604,1.011 -1.347,0 -2.429,-0.511 -3.247,-1.531 -0.817,-1.022 -1.399,-2.738 -1.745,-5.146 -0.347,-2.411 -0.52,-5.739 -0.52,-9.986 0,-3.921 0.254,-7.075 0.765,-9.465 0.51,-2.389 1.326,-4.125 2.45,-5.207 1.124,-1.082 2.583,-1.623 4.38,-1.623 1.43,0 2.715,0.296 3.86,0.888 1.142,0.591 2.102,1.562 2.88,2.91 0.774,1.348 1.286,3.144 1.53,5.391 0.653,-0.205 1.165,-0.592 1.532,-1.165 0.368,-0.572 0.551,-1.224 0.551,-1.96 0,-1.021 -0.419,-2.051 -1.255,-3.093 C 10.036,2.604 8.719,1.735 6.923,1.041 5.125,0.348 2.818,0 0,0"
       style="fill:#231f20;fill-opacity:1;fill-rule:nonzero;stroke:none"
       transform="matrix(1.3333333,0,0,-1.3333333,566.00587,272.81187)"
       clip-path="url(#clipPath12)" />
    <path
       id="path13"
       d="m 0,0 c -2.737,0 -4.922,0.714 -6.555,2.144 -1.634,1.429 -2.45,3.941 -2.45,7.535 V 32.835 H -13.6 v 0.613 c 2,0 3.757,0.204 5.268,0.613 1.512,0.407 2.818,1.061 3.921,1.96 1.02,0.816 1.868,1.847 2.542,3.093 0.675,1.246 1.194,2.705 1.562,4.381 H 0.306 V 33.448 H 8.147 V 32.835 H 0.306 V 6.922 c 0,-1.92 0.367,-3.329 1.102,-4.227 0.737,-0.898 1.818,-1.347 3.247,-1.347 0.573,0 1.196,0.061 1.869,0.183 0.674,0.123 1.399,0.327 2.174,0.613 V 1.531 C 8.045,1.245 6.974,0.919 5.483,0.551 3.991,0.184 2.164,0 0,0"
       style="fill:#231f20;fill-opacity:1;fill-rule:nonzero;stroke:none"
       transform="matrix(1.3333333,0,0,-1.3333333,604.722,272.81187)"
       clip-path="url(#clipPath14)" />
    <path
       id="path15"
       d="m 0,0 v 0.613 h 2.573 c 0.614,0 1.154,0.092 1.623,0.276 0.47,0.183 0.837,0.56 1.103,1.132 0.265,0.572 0.398,1.43 0.398,2.574 v 34.551 c 0,1.184 -0.133,2.052 -0.398,2.603 -0.266,0.552 -0.633,0.919 -1.103,1.103 -0.469,0.184 -1.009,0.275 -1.623,0.275 H 0 v 0.613 h 21.136 v -0.613 h -2.574 c -0.572,0 -1.093,-0.082 -1.561,-0.245 C 16.53,42.719 16.152,42.371 15.867,41.841 15.58,41.31 15.438,40.493 15.438,39.391 V 0.613 h 9.005 c 2.492,0 4.512,0.326 6.065,0.98 1.552,0.653 2.726,1.694 3.523,3.124 0.796,1.429 1.276,3.328 1.439,5.698 l 0.245,3.246 h 0.613 L 35.838,0 Z"
       style="fill:#231f20;fill-opacity:1;fill-rule:nonzero;stroke:none"
       transform="matrix(1.3333333,0,0,-1.3333333,638.61787,271.99547)"
       clip-path="url(#clipPath16)" />
    <path
       id="path17"
       d="M 0,0 C 1.593,0 2.849,0.53 3.768,1.593 4.687,2.654 5.35,4.39 5.758,6.8 c 0.408,2.409 0.612,5.656 0.612,9.741 0,4.083 -0.204,7.32 -0.612,9.709 -0.408,2.39 -1.082,4.114 -2.021,5.177 -0.94,1.061 -2.206,1.593 -3.799,1.593 -1.552,0 -2.797,-0.532 -3.736,-1.593 -0.94,-1.063 -1.614,-2.787 -2.021,-5.177 -0.41,-2.389 -0.614,-5.626 -0.614,-9.709 0,-4.085 0.204,-7.332 0.614,-9.741 C -5.412,4.39 -4.738,2.654 -3.798,1.593 -2.859,0.53 -1.593,0 0,0 m -0.122,-0.612 c -4.902,0 -8.761,1.418 -11.579,4.258 -2.819,2.837 -4.227,7.136 -4.227,12.895 0,5.758 1.348,10.046 4.043,12.864 2.696,2.818 6.678,4.227 11.946,4.227 4.901,0 8.76,-1.409 11.579,-4.227 2.817,-2.818 4.226,-7.106 4.226,-12.864 0,-5.759 -1.357,-10.058 -4.074,-12.895 C 9.076,0.806 5.104,-0.612 -0.122,-0.612"
       style="fill:#231f20;fill-opacity:1;fill-rule:nonzero;stroke:none"
       transform="matrix(1.3333333,0,0,-1.3333333,714.82613,271.99547)"
       clip-path="url(#clipPath18)" />
    <path
       id="path19"
       d="M 0,0 C 1.593,0 2.849,0.53 3.768,1.593 4.687,2.654 5.35,4.39 5.758,6.8 c 0.408,2.409 0.613,5.656 0.613,9.741 0,4.083 -0.205,7.32 -0.613,9.709 -0.408,2.39 -1.082,4.114 -2.021,5.177 -0.94,1.061 -2.205,1.593 -3.799,1.593 -1.552,0 -2.797,-0.532 -3.736,-1.593 -0.94,-1.063 -1.614,-2.787 -2.021,-5.177 -0.41,-2.389 -0.614,-5.626 -0.614,-9.709 0,-4.085 0.204,-7.332 0.614,-9.741 C -5.412,4.39 -4.738,2.654 -3.798,1.593 -2.859,0.53 -1.593,0 0,0 m -0.122,-0.612 c -4.901,0 -8.761,1.418 -11.578,4.258 -2.819,2.837 -4.228,7.136 -4.228,12.895 0,5.758 1.348,10.046 4.043,12.864 2.696,2.818 6.678,4.227 11.946,4.227 4.901,0 8.76,-1.409 11.579,-4.227 2.818,-2.818 4.226,-7.106 4.226,-12.864 0,-5.759 -1.357,-10.058 -4.073,-12.895 C 9.076,0.806 5.104,-0.612 -0.122,-0.612"
       style="fill:#231f20;fill-opacity:1;fill-rule:nonzero;stroke:none"
       transform="matrix(1.3333333,0,0,-1.3333333,764.8952,271.99547)"
       clip-path="url(#clipPath20)" />
    <path
       id="path21"
       d="m 0,0 v 0.613 h 0.735 c 0.613,0 1.256,0.092 1.93,0.276 0.674,0.183 1.246,0.56 1.716,1.132 0.469,0.572 0.704,1.43 0.704,2.574 v 37.613 c 0,1.104 -0.245,1.92 -0.735,2.451 C 3.86,45.189 3.277,45.537 2.604,45.7 1.93,45.863 1.308,45.945 0.735,45.945 H 0 v 0.613 H 14.396 V 20.094 18.256 16.449 c 0,-0.593 -0.02,-1.216 -0.06,-1.869 l 11.822,12.436 c 0.449,0.49 0.818,0.928 1.103,1.317 0.285,0.388 0.49,0.745 0.613,1.072 0.122,0.326 0.184,0.613 0.184,0.858 0,0.735 -0.562,1.245 -1.685,1.531 -1.124,0.286 -2.95,0.429 -5.482,0.429 v 0.613 h 14.825 v -0.613 c -0.9,0 -1.727,-0.113 -2.482,-0.337 -0.756,-0.225 -1.603,-0.704 -2.542,-1.44 -0.94,-0.735 -2.144,-1.879 -3.615,-3.43 L 22.115,21.809 33.51,4.84 C 34.326,3.615 34.989,2.705 35.501,2.114 36.012,1.521 36.44,1.123 36.787,0.919 37.134,0.714 37.471,0.613 37.798,0.613 h 0.123 V 0 h -0.858 c -2.247,0 -4.135,0.051 -5.667,0.153 -1.531,0.102 -2.829,0.326 -3.89,0.674 -1.063,0.347 -1.99,0.889 -2.787,1.624 -0.797,0.735 -1.603,1.735 -2.42,3.001 L 15.99,15.376 14.396,13.723 V 4.595 c 0,-1.144 0.236,-2.002 0.706,-2.574 0.468,-0.572 1.05,-0.949 1.746,-1.132 0.693,-0.184 1.326,-0.276 1.898,-0.276 h 0.735 V 0 Z"
       style="fill:#231f20;fill-opacity:1;fill-rule:nonzero;stroke:none"
       transform="matrix(1.3333333,0,0,-1.3333333,791.27667,271.99547)"
       clip-path="url(#clipPath22)" />
    <path
       id="path23"
       d="m 0,0 c 0.925,0 1.693,0.275 2.304,0.827 0.609,0.55 1.062,1.407 1.357,2.569 0.296,1.161 0.443,2.637 0.443,4.429 0,1.831 -0.132,3.312 -0.398,4.444 -0.267,1.132 -0.704,1.954 -1.314,2.465 -0.611,0.512 -1.417,0.768 -2.421,0.768 -1.575,0 -2.722,-0.659 -3.441,-1.978 -0.718,-1.319 -1.077,-3.229 -1.077,-5.729 0,-2.579 0.354,-4.523 1.063,-5.832 C -2.775,0.654 -1.614,0 0,0 m 0.236,-0.443 c -1.22,0 -2.234,0.344 -3.042,1.033 -0.807,0.689 -1.368,1.821 -1.682,3.396 h -0.059 v -4.134 h -4.637 v 0.295 h 0.413 c 0.651,0 1.142,0.06 1.478,0.177 0.334,0.118 0.564,0.34 0.693,0.665 0.128,0.324 0.192,0.792 0.192,1.403 v 17.303 c 0,0.63 -0.064,1.113 -0.192,1.448 -0.129,0.334 -0.354,0.56 -0.679,0.678 -0.325,0.118 -0.783,0.178 -1.372,0.178 h -0.444 v 0.295 h 4.577 v -5.64 c 0,-0.531 -0.005,-1.27 -0.015,-2.215 -0.01,-0.945 -0.025,-1.949 -0.043,-3.012 h 0.058 c 0.295,1.496 0.846,2.623 1.654,3.382 0.806,0.757 1.88,1.136 3.218,1.136 1.91,0 3.337,-0.669 4.283,-2.007 C 5.581,12.599 6.054,10.542 6.054,7.766 6.054,5.974 5.822,4.468 5.359,3.248 4.896,2.027 4.232,1.107 3.366,0.487 2.5,-0.133 1.456,-0.443 0.236,-0.443"
       style="fill:#231f20;fill-opacity:1;fill-rule:nonzero;stroke:none"
       transform="matrix(1.3333333,0,0,-1.3333333,474.14773,323.7976)"
       clip-path="url(#clipPath24)" />
    <path
       id="path25"
       d="M 0,0 C 0,1.594 -0.133,2.923 -0.398,3.986 -0.664,5.049 -1.077,5.851 -1.639,6.393 -2.2,6.934 -2.914,7.205 -3.78,7.205 -4.705,7.205 -5.463,6.934 -6.053,6.393 -6.644,5.851 -7.082,5.049 -7.367,3.986 -7.653,2.923 -7.835,1.594 -7.914,0 Z m -3.366,-8.859 c -2.029,0 -3.622,0.704 -4.783,2.111 -1.163,1.408 -1.743,3.391 -1.743,5.951 0,2.776 0.536,4.852 1.609,6.23 C -7.21,6.811 -5.689,7.5 -3.721,7.5 -1.93,7.5 -0.527,6.88 0.487,5.64 1.501,4.4 2.009,2.608 2.009,0.266 v -0.561 h -9.952 c 0,-1.949 0.176,-3.529 0.531,-4.74 0.355,-1.211 0.876,-2.101 1.565,-2.672 0.69,-0.571 1.536,-0.856 2.54,-0.856 0.748,0 1.408,0.133 1.978,0.398 0.571,0.266 1.049,0.65 1.433,1.152 0.383,0.502 0.665,1.107 0.841,1.816 0.177,-0.059 0.305,-0.158 0.384,-0.296 0.078,-0.137 0.117,-0.295 0.117,-0.472 0,-0.374 -0.176,-0.787 -0.53,-1.24 -0.354,-0.453 -0.887,-0.841 -1.595,-1.167 -0.709,-0.324 -1.605,-0.487 -2.687,-0.487"
       style="fill:#231f20;fill-opacity:1;fill-rule:nonzero;stroke:none"
       transform="matrix(1.3333333,0,0,-1.3333333,500.054,312.5768)"
       clip-path="url(#clipPath26)" />
    <path
       id="path27"
       d="M 0,0 C 0.807,0 1.54,0.216 2.199,0.65 2.859,1.083 3.371,1.644 3.734,2.333 4.1,3.021 4.281,3.73 4.281,4.459 V 8.357 L 2.126,8.268 C 0.196,8.189 -1.147,7.781 -1.905,7.042 -2.663,6.304 -3.041,5.207 -3.041,3.75 c 0,-0.768 0.112,-1.427 0.339,-1.978 0.225,-0.552 0.561,-0.985 1.004,-1.3 C -1.255,0.158 -0.689,0 0,0 m -0.413,-0.414 c -1.438,0 -2.555,0.379 -3.352,1.138 -0.797,0.757 -1.196,1.835 -1.196,3.233 0,1.535 0.562,2.667 1.683,3.396 1.122,0.728 2.825,1.131 5.108,1.21 l 2.451,0.089 v 2.215 c 0,1.043 -0.069,1.919 -0.207,2.628 -0.137,0.709 -0.442,1.245 -0.915,1.609 -0.472,0.364 -1.18,0.546 -2.126,0.546 -1.279,0 -2.116,-0.344 -2.51,-1.033 -0.394,-0.69 -0.59,-1.752 -0.59,-3.189 -0.552,0 -0.965,0.118 -1.241,0.354 -0.275,0.236 -0.413,0.58 -0.413,1.033 0,0.63 0.182,1.182 0.546,1.654 0.364,0.473 0.911,0.837 1.64,1.093 0.727,0.255 1.603,0.384 2.628,0.384 1.791,0 3.086,-0.399 3.882,-1.196 0.797,-0.797 1.197,-2.023 1.197,-3.677 V 2.421 C 6.172,1.831 6.221,1.373 6.319,1.048 6.417,0.724 6.595,0.497 6.851,0.369 7.106,0.241 7.48,0.177 7.973,0.177 H 8.091 V -0.118 H 4.429 V 3.13 H 4.37 C 4.173,2.46 3.858,1.86 3.426,1.329 2.992,0.797 2.455,0.374 1.815,0.059 1.176,-0.255 0.433,-0.414 -0.413,-0.414"
       style="fill:#231f20;fill-opacity:1;fill-rule:nonzero;stroke:none"
       transform="matrix(1.3333333,0,0,-1.3333333,513.47987,323.83733)"
       clip-path="url(#clipPath28)" />
    <path
       id="path29"
       d="m 0,0 c -1.674,0 -2.923,0.462 -3.75,1.388 -0.827,0.925 -1.24,2.382 -1.24,4.37 v 7.619 c 0,0.688 -0.06,1.206 -0.178,1.55 -0.117,0.344 -0.345,0.58 -0.68,0.709 -0.334,0.128 -0.837,0.192 -1.505,0.192 h -0.413 v 0.295 h 4.664 V 5.64 c 0,-1.161 0.095,-2.126 0.282,-2.894 0.187,-0.767 0.532,-1.349 1.034,-1.742 0.501,-0.394 1.185,-0.59 2.052,-0.59 0.984,0 1.801,0.245 2.451,0.738 0.649,0.492 1.137,1.186 1.462,2.081 0.324,0.896 0.486,1.925 0.486,3.086 v 7.058 c 0,0.688 -0.059,1.206 -0.177,1.55 -0.118,0.344 -0.344,0.58 -0.678,0.709 -0.336,0.128 -0.828,0.192 -1.477,0.192 H 2.037 v 0.295 H 6.556 V 3.012 C 6.556,2.343 6.614,1.831 6.732,1.477 6.851,1.122 7.072,0.886 7.396,0.768 7.722,0.65 8.179,0.591 8.771,0.591 h 0.5 V 0.295 H 4.813 V 4.164 H 4.754 C 4.577,3.356 4.33,2.688 4.016,2.156 3.7,1.624 3.326,1.201 2.894,0.886 2.46,0.571 1.997,0.344 1.506,0.207 1.014,0.069 0.512,0 0,0"
       style="fill:#231f20;fill-opacity:1;fill-rule:nonzero;stroke:none"
       transform="matrix(1.3333333,0,0,-1.3333333,537.22067,324.38867)"
       clip-path="url(#clipPath30)" />
    <path
       id="path31"
       d="M 0,0 C -1.34,0 -2.304,0.34 -2.895,1.019 -3.485,1.698 -3.78,2.864 -3.78,4.518 v 11.31 h -2.274 v 0.295 c 0.63,0 1.171,0.049 1.624,0.148 0.452,0.098 0.827,0.265 1.122,0.501 0.335,0.276 0.585,0.655 0.753,1.137 0.167,0.483 0.29,1.088 0.369,1.817 h 0.295 V 16.123 H 2.066 V 15.828 H -1.891 V 3.81 c 0,-1.241 0.188,-2.126 0.562,-2.658 0.374,-0.532 0.964,-0.798 1.771,-0.798 0.295,0 0.58,0.02 0.857,0.06 0.275,0.039 0.57,0.107 0.886,0.206 V 0.325 C 1.909,0.227 1.569,0.148 1.166,0.089 0.762,0.03 0.373,0 0,0"
       style="fill:#231f20;fill-opacity:1;fill-rule:nonzero;stroke:none"
       transform="matrix(1.3333333,0,0,-1.3333333,559.22987,324.38867)"
       clip-path="url(#clipPath32)" />
    <path
       id="path33"
       d="m 0,0 c 1.24,0 2.244,0.094 3.012,0.28 0.768,0.188 1.387,0.502 1.861,0.946 0.472,0.442 0.89,1.053 1.254,1.83 0.364,0.778 0.764,1.757 1.196,2.938 L 1.182,20.788 c -0.178,0.453 -0.345,0.787 -0.502,1.004 -0.159,0.217 -0.34,0.359 -0.546,0.428 -0.208,0.069 -0.498,0.104 -0.872,0.104 h -0.355 v 0.295 H 5.108 V 22.324 H 4.666 C 4.095,22.324 3.687,22.254 3.44,22.117 3.194,21.979 3.07,21.743 3.07,21.408 3.07,21.231 3.12,21 3.219,20.714 3.317,20.429 3.475,20.021 3.691,19.489 L 6.024,13.672 C 6.181,13.258 6.358,12.811 6.556,12.328 6.752,11.846 6.944,11.358 7.131,10.866 7.318,10.374 7.496,9.912 7.662,9.479 7.829,9.045 7.973,8.662 8.091,8.327 c 0.236,0.669 0.468,1.348 0.693,2.037 0.227,0.69 0.458,1.368 0.695,2.038 l 2.391,7.205 c 0.118,0.374 0.217,0.704 0.296,0.989 0.078,0.285 0.118,0.517 0.118,0.694 0,0.355 -0.118,0.615 -0.354,0.783 -0.237,0.167 -0.679,0.251 -1.329,0.251 H 9.36 v 0.295 h 5.641 v -0.295 h -0.178 c -0.492,0 -0.881,-0.04 -1.166,-0.118 -0.286,-0.079 -0.507,-0.257 -0.664,-0.532 -0.158,-0.276 -0.335,-0.689 -0.531,-1.24 L 7.973,6.939 C 7.48,5.463 7.027,4.252 6.614,3.307 6.201,2.362 5.733,1.629 5.212,1.107 4.69,0.586 4.031,0.222 3.233,0.015 2.436,-0.192 1.417,-0.295 0.177,-0.295 H 0 Z"
       style="fill:#231f20;fill-opacity:1;fill-rule:nonzero;stroke:none"
       transform="matrix(1.3333333,0,0,-1.3333333,564.85867,333.05013)"
       clip-path="url(#clipPath34)" />
    <path
       id="path35"
       d="m 0,0 c -1.024,0 -1.88,0.144 -2.569,0.429 -0.69,0.284 -1.202,0.659 -1.535,1.121 -0.335,0.463 -0.503,0.99 -0.503,1.58 0,0.414 0.069,0.743 0.208,0.989 0.136,0.246 0.313,0.419 0.531,0.517 0.216,0.098 0.423,0.148 0.619,0.148 0,-0.985 0.094,-1.806 0.281,-2.466 0.187,-0.66 0.522,-1.162 1.004,-1.506 0.483,-0.344 1.147,-0.517 1.993,-0.517 1.103,0 1.954,0.315 2.554,0.945 0.601,0.63 0.901,1.487 0.901,2.57 0,0.59 -0.093,1.082 -0.28,1.476 C 3.016,5.68 2.682,6.043 2.199,6.378 1.717,6.713 1.033,7.087 0.147,7.5 -0.995,8.071 -1.89,8.588 -2.539,9.051 c -0.65,0.462 -1.113,0.964 -1.389,1.506 -0.275,0.541 -0.414,1.176 -0.414,1.904 0,1.201 0.424,2.151 1.271,2.85 0.846,0.698 2.008,1.048 3.484,1.048 0.925,0 1.698,-0.138 2.317,-0.413 0.622,-0.276 1.08,-0.626 1.374,-1.049 0.295,-0.423 0.443,-0.871 0.443,-1.343 0,-0.453 -0.123,-0.817 -0.368,-1.093 -0.247,-0.275 -0.626,-0.413 -1.138,-0.413 0,1.515 -0.227,2.564 -0.679,3.145 -0.453,0.58 -1.142,0.871 -2.067,0.871 -0.69,0 -1.261,-0.118 -1.712,-0.355 -0.454,-0.236 -0.793,-0.58 -1.02,-1.033 -0.225,-0.453 -0.338,-1.004 -0.338,-1.654 0,-0.649 0.142,-1.195 0.427,-1.638 0.285,-0.444 0.713,-0.832 1.285,-1.167 C -0.492,9.882 0.206,9.518 1.033,9.125 2.097,8.652 2.923,8.185 3.514,7.722 4.104,7.259 4.513,6.767 4.739,6.246 4.965,5.724 5.079,5.118 5.079,4.43 5.079,3.031 4.616,1.944 3.69,1.167 2.766,0.389 1.535,0 0,0"
       style="fill:#231f20;fill-opacity:1;fill-rule:nonzero;stroke:none"
       transform="matrix(1.3333333,0,0,-1.3333333,602.18293,324.38867)"
       clip-path="url(#clipPath36)" />
    <path
       id="path37"
       d="M 0,0 C -1.339,0 -2.304,0.34 -2.894,1.019 -3.485,1.698 -3.78,2.864 -3.78,4.518 v 11.31 h -2.274 v 0.295 c 0.63,0 1.171,0.049 1.625,0.148 0.451,0.098 0.826,0.265 1.121,0.501 0.335,0.276 0.586,0.655 0.753,1.137 0.167,0.483 0.291,1.088 0.369,1.817 H -1.89 V 16.123 H 2.067 V 15.828 H -1.89 V 3.81 c 0,-1.241 0.187,-2.126 0.561,-2.658 0.374,-0.532 0.965,-0.798 1.771,-0.798 0.296,0 0.581,0.02 0.857,0.06 C 1.575,0.453 1.87,0.521 2.186,0.62 V 0.325 C 1.909,0.227 1.569,0.148 1.166,0.089 0.763,0.03 0.373,0 0,0"
       style="fill:#231f20;fill-opacity:1;fill-rule:nonzero;stroke:none"
       transform="matrix(1.3333333,0,0,-1.3333333,619.6244,324.38867)"
       clip-path="url(#clipPath38)" />
    <path
       id="path39"
       d="m 0,0 c -1.674,0 -2.923,0.462 -3.75,1.388 -0.827,0.925 -1.24,2.382 -1.24,4.37 v 7.619 c 0,0.688 -0.06,1.206 -0.177,1.55 -0.118,0.344 -0.345,0.58 -0.68,0.709 -0.335,0.128 -0.837,0.192 -1.506,0.192 h -0.413 v 0.295 h 4.665 V 5.64 c 0,-1.161 0.094,-2.126 0.281,-2.894 0.187,-0.767 0.532,-1.349 1.034,-1.742 0.501,-0.394 1.185,-0.59 2.052,-0.59 0.984,0 1.8,0.245 2.451,0.738 0.649,0.492 1.137,1.186 1.461,2.081 0.325,0.896 0.487,1.925 0.487,3.086 v 7.058 c 0,0.688 -0.059,1.206 -0.177,1.55 -0.118,0.344 -0.344,0.58 -0.678,0.709 -0.336,0.128 -0.828,0.192 -1.477,0.192 H 2.037 v 0.295 H 6.556 V 3.012 C 6.556,2.343 6.614,1.831 6.732,1.477 6.851,1.122 7.072,0.886 7.396,0.768 7.722,0.65 8.18,0.591 8.77,0.591 H 9.272 V 0.295 H 4.813 V 4.164 H 4.754 C 4.576,3.356 4.331,2.688 4.016,2.156 3.701,1.624 3.326,1.201 2.894,0.886 2.461,0.571 1.998,0.344 1.506,0.207 1.014,0.069 0.512,0 0,0"
       style="fill:#231f20;fill-opacity:1;fill-rule:nonzero;stroke:none"
       transform="matrix(1.3333333,0,0,-1.3333333,634.6244,324.38867)"
       clip-path="url(#clipPath40)" />
    <path
       id="path41"
       d="m 0,0 c 1.516,0.019 2.653,0.684 3.411,1.993 0.757,1.309 1.137,3.223 1.137,5.743 0,1.732 -0.152,3.169 -0.458,4.312 -0.305,1.141 -0.792,2.002 -1.462,2.583 -0.669,0.581 -1.566,0.871 -2.687,0.871 -0.984,0 -1.782,-0.275 -2.391,-0.826 -0.611,-0.552 -1.054,-1.399 -1.329,-2.54 -0.277,-1.142 -0.414,-2.609 -0.414,-4.4 0,-1.771 0.158,-3.233 0.473,-4.384 C -3.405,2.2 -2.934,1.353 -2.303,0.812 -1.673,0.27 -0.905,0 0,0 m -0.295,-0.443 c -1.221,0 -2.269,0.31 -3.144,0.93 -0.877,0.62 -1.546,1.545 -2.008,2.776 -0.463,1.23 -0.695,2.731 -0.695,4.503 0,1.772 0.211,3.263 0.635,4.473 0.424,1.211 1.064,2.131 1.919,2.761 0.857,0.63 1.924,0.945 3.204,0.945 1.359,0 2.447,-0.364 3.263,-1.092 0.817,-0.729 1.363,-1.831 1.64,-3.308 h 0.058 c -0.02,0.552 -0.034,1.147 -0.044,1.787 -0.011,0.64 -0.014,1.235 -0.014,1.787 v 1.299 3.277 c 0,0.63 -0.06,1.113 -0.178,1.448 -0.118,0.334 -0.34,0.56 -0.664,0.678 -0.325,0.118 -0.782,0.178 -1.374,0.178 H 1.92 v 0.295 H 6.408 V 2.392 C 6.408,1.781 6.468,1.313 6.585,0.989 6.703,0.664 6.935,0.442 7.279,0.324 7.624,0.207 8.121,0.147 8.77,0.147 H 9.096 V -0.148 H 4.548 V 4.045 H 4.488 C 4.173,2.569 3.612,1.451 2.806,0.694 1.998,-0.064 0.965,-0.443 -0.295,-0.443"
       style="fill:#231f20;fill-opacity:1;fill-rule:nonzero;stroke:none"
       transform="matrix(1.3333333,0,0,-1.3333333,658.40427,323.7976)"
       clip-path="url(#clipPath42)" />
    <path
       id="path43"
       d="m 0,0 c -0.276,0 -0.508,0.103 -0.694,0.31 -0.188,0.207 -0.281,0.586 -0.281,1.137 0,0.532 0.093,0.901 0.281,1.107 0.186,0.207 0.418,0.31 0.694,0.31 0.274,0 0.506,-0.103 0.693,-0.31 C 0.88,2.348 0.974,1.979 0.974,1.447 0.974,0.896 0.88,0.517 0.693,0.31 0.506,0.103 0.274,0 0,0 m -3.751,-19.017 v 0.296 h 0.591 c 0.669,0 1.171,0.059 1.506,0.177 0.335,0.118 0.561,0.339 0.679,0.664 0.118,0.325 0.177,0.793 0.177,1.403 v 10.689 c 0,0.63 -0.059,1.112 -0.177,1.447 -0.118,0.335 -0.339,0.561 -0.665,0.679 -0.325,0.119 -0.782,0.178 -1.373,0.178 h -0.295 v 0.295 h 4.4 v -13.229 c 0,-0.63 0.059,-1.112 0.178,-1.447 0.118,-0.335 0.354,-0.561 0.708,-0.679 0.354,-0.118 0.846,-0.177 1.476,-0.177 h 0.62 v -0.296 z"
       style="fill:#231f20;fill-opacity:1;fill-rule:nonzero;stroke:none"
       transform="matrix(1.3333333,0,0,-1.3333333,677.304,298.63933)"
       clip-path="url(#clipPath44)" />
    <path
       id="path45"
       d="m 0,0 c 1.103,0 1.982,0.291 2.643,0.871 0.66,0.581 1.136,1.452 1.432,2.613 0.295,1.162 0.443,2.638 0.443,4.43 0,1.87 -0.153,3.381 -0.457,4.533 -0.306,1.151 -0.789,1.993 -1.448,2.524 -0.66,0.531 -1.51,0.798 -2.554,0.798 -1.103,0 -1.989,-0.271 -2.658,-0.812 -0.67,-0.542 -1.157,-1.388 -1.461,-2.54 C -4.366,11.265 -4.518,9.764 -4.518,7.914 -4.518,6.102 -4.366,4.611 -4.06,3.44 -3.756,2.269 -3.263,1.403 -2.584,0.842 -1.904,0.281 -1.044,0 0,0 m -0.03,-0.295 c -1.988,0 -3.553,0.674 -4.695,2.023 -1.142,1.348 -1.712,3.41 -1.712,6.186 0,2.755 0.551,4.803 1.654,6.142 1.101,1.338 2.725,2.008 4.872,2.008 2.008,0 3.572,-0.66 4.694,-1.979 C 5.906,12.766 6.468,10.708 6.468,7.914 6.468,5.138 5.915,3.076 4.813,1.728 3.71,0.379 2.097,-0.295 -0.03,-0.295"
       style="fill:#231f20;fill-opacity:1;fill-rule:nonzero;stroke:none"
       transform="matrix(1.3333333,0,0,-1.3333333,694.07493,323.9948)"
       clip-path="url(#clipPath46)" />
    <path
       id="path47"
       d="m 0,0 c 1.639,0 3.043,0.235 4.211,0.707 1.168,0.471 2.121,1.23 2.859,2.274 0.738,1.046 1.27,2.398 1.598,4.058 0.328,1.66 0.492,3.658 0.492,5.994 0,3.073 -0.267,5.532 -0.799,7.377 -0.533,1.844 -1.415,3.196 -2.644,4.057 -1.23,0.861 -2.827,1.291 -4.794,1.291 H -2.151 V 0 Z m -16.29,-17.52 v 0.615 h 1.905 c 0.779,0 1.465,0.123 2.06,0.369 0.594,0.246 1.045,0.665 1.352,1.26 0.307,0.593 0.46,1.445 0.46,2.551 v 34.549 c 0,1.065 -0.164,1.875 -0.491,2.428 -0.329,0.553 -0.778,0.942 -1.352,1.168 -0.575,0.225 -1.25,0.338 -2.029,0.338 h -1.905 v 0.615 H 1.967 c 5.492,0 9.559,-1.159 12.203,-3.474 2.643,-2.315 3.965,-5.481 3.965,-9.498 0,-1.843 -0.319,-3.595 -0.953,-5.255 C 16.547,6.485 15.543,4.989 14.17,3.658 12.797,2.326 10.993,1.281 8.76,0.523 6.526,-0.236 3.812,-0.614 0.614,-0.614 h -2.765 v -12.295 c 0,-1.067 0.163,-1.886 0.492,-2.459 0.327,-0.574 0.788,-0.974 1.382,-1.199 0.594,-0.226 1.281,-0.338 2.06,-0.338 h 2.643 v -0.615 z"
       style="fill:#231f20;fill-opacity:1;fill-rule:nonzero;stroke:none"
       transform="matrix(1.3333333,0,0,-1.3333333,520.58533,131.25067)"
       clip-path="url(#clipPath48)" />
    <path
       id="path49"
       d="m 0,0 v 0.614 h 1.905 c 0.779,0 1.466,0.123 2.061,0.369 0.593,0.246 1.044,0.666 1.351,1.261 0.308,0.593 0.461,1.444 0.461,2.551 V 39.22 c 0,1.107 -0.153,1.946 -0.461,2.521 -0.307,0.573 -0.758,0.973 -1.351,1.198 -0.595,0.225 -1.282,0.338 -2.061,0.338 H 0 v 0.616 h 19.917 v -0.616 h -1.904 c -0.781,0 -1.456,-0.113 -2.03,-0.338 -0.574,-0.225 -1.014,-0.625 -1.322,-1.198 -0.307,-0.575 -0.46,-1.394 -0.46,-2.459 V 0.614 h 9.897 c 2.377,0 4.293,0.328 5.748,0.984 1.454,0.655 2.55,1.721 3.289,3.197 0.738,1.475 1.187,3.463 1.352,5.963 l 0.185,2.766 h 0.614 L 34.795,0 Z"
       style="fill:#231f20;fill-opacity:1;fill-rule:nonzero;stroke:none"
       transform="matrix(1.3333333,0,0,-1.3333333,618.68813,154.61013)"
       clip-path="url(#clipPath50)" />
    <path
       id="path51"
       d="M 0,0 V -100.693"
       style="fill:none;stroke:#231f20;stroke-width:0.578;stroke-linecap:butt;stroke-linejoin:miter;stroke-miterlimit:10;stroke-dasharray:none;stroke-opacity:1"
       transform="matrix(1.3333333,0,0,-1.3333333,582.01373,58.220133)"
       clip-path="url(#clipPath52)" />
    <path
       id="path53"
       d="M 761.297,403.739 H 112.153 v 244.91 h 649.144 z"
       style="fill:none;stroke:#231f20;stroke-width:2;stroke-linecap:butt;stroke-linejoin:miter;stroke-miterlimit:10;stroke-dasharray:none;stroke-opacity:1"
       transform="matrix(1.3333333,0,0,-1.3333333,0,897.724)"
       clip-path="url(#clipPath54)" />
  </g>
</svg>
