<?xml version="1.0" encoding="UTF-8" standalone="no"?>
<!-- Created with Inkscape (http://www.inkscape.org/) -->

<svg
   version="1.1"
   id="svg1"
   width="556.40625"
   height="316.10675"
   viewBox="0 0 556.40627 316.10675"
   sodipodi:docname="Logo_Perfect_Look copy.pdf"
   xmlns:inkscape="http://www.inkscape.org/namespaces/inkscape"
   xmlns:sodipodi="http://sodipodi.sourceforge.net/DTD/sodipodi-0.dtd"
   xmlns="http://www.w3.org/2000/svg"
   xmlns:svg="http://www.w3.org/2000/svg">
  <defs
     id="defs1">
    <clipPath
       clipPathUnits="userSpaceOnUse"
       id="clipPath59">
      <path
         d="M 0,673.293 H 869.066 V 0 H 0 Z"
         transform="translate(-425.31251,-336.64651)"
         id="path59" />
    </clipPath>
  </defs>
  <sodipodi:namedview
     id="namedview1"
     pagecolor="#505050"
     bordercolor="#ffffff"
     borderopacity="1"
     inkscape:showpageshadow="0"
     inkscape:pageopacity="0"
     inkscape:pagecheckerboard="1"
     inkscape:deskcolor="#505050">
    <inkscape:page
       x="0"
       y="0"
       width="556.40625"
       height="316.10675"
       id="page2"
       margin="0"
       bleed="0" />
  </sodipodi:namedview>
  <g
     id="layer-MC0"
     inkscape:groupmode="layer"
     inkscape:label="Layer 1"
     transform="translate(-290.11327,-448.862)">
    <path
       id="path55"
       d="M 1.8408609,1.5624998e-6 V -0.65624844 h 2.7539063 c 0.65625,0 1.2333984,-0.0966797 1.734375,-0.29296875 0.5068359,-0.19335941 0.9023437,-0.59765621 1.1835937,-1.20703121 0.2871094,-0.6152344 0.4335938,-1.538086 0.4335938,-2.765625 V -42.222655 c 0,-1.177734 -0.1523438,-2.053711 -0.4570313,-2.625 -0.3046875,-0.568359 -0.711914,-0.940429 -1.21875,-1.113281 -0.5009765,-0.178711 -1.0605468,-0.269531 -1.6757812,-0.269531 H 1.8408609 v -0.65625 H 21.997111 c 6.084961,0 10.59375,1.250976 13.523437,3.75 2.935547,2.493164 4.40625,5.882812 4.40625,10.171875 0,1.96875 -0.351562,3.852539 -1.054687,5.648437 -0.703125,1.798828 -1.810547,3.407227 -3.316406,4.828125 -1.508789,1.423828 -3.500977,2.540039 -5.976563,3.351563 -2.469726,0.805664 -5.478515,1.207031 -9.023437,1.207031 h -2.238282 v 13.3359376 c 0,1.133789 0.164063,1.9863281 0.492188,2.5546875 0.328125,0.571289 0.75293,0.946289 1.277344,1.12499996 0.530273,0.17285156 1.101562,0.2578125 1.710937,0.2578125 h 4.007813 V 1.5624998e-6 Z M 19.899455,-18.585936 c 1.617187,0 2.991211,-0.249023 4.125,-0.75 1.139648,-0.506836 2.068359,-1.31543 2.789062,-2.425781 0.726563,-1.116211 1.253906,-2.548828 1.582031,-4.300781 0.328125,-1.757813 0.492188,-3.881836 0.492188,-6.375 0,-3.328125 -0.263672,-5.994141 -0.785156,-8.003907 -0.524414,-2.015625 -1.379883,-3.483398 -2.566407,-4.40625 -1.180664,-0.919922 -2.730468,-1.382812 -4.652343,-1.382812 h -2.566407 v 27.644531 z M 62.32133,0.65625156 c -5.695313,0 -10.013672,-1.58496094 -12.949219,-4.75781246 -2.929688,-3.1699219 -4.394531,-7.6054691 -4.394531,-13.3007811 0,-6.169922 1.420898,-10.819336 4.265625,-13.945313 2.850586,-3.131836 6.858398,-4.699218 12.023437,-4.699218 4.772461,0 8.525391,1.335937 11.261719,4.007812 2.733398,2.671875 4.101562,6.609375 4.101562,11.8125 v 1.582031 H 55.090861 c 0,4.423828 0.292969,8.000977 0.878906,10.7343753 0.591797,2.7363281 1.535156,4.7285156 2.824219,5.9765625 1.294922,1.24218751 2.970703,1.86328126 5.027344,1.86328126 1.538086,0 2.929687,-0.328125 4.171875,-0.98437496 1.248047,-0.65625 2.299804,-1.7021485 3.152343,-3.140625 0.84961,-1.444336 1.40918,-3.375 1.675782,-5.7890625 0.873047,0.1816406 1.49414,0.5566406 1.863281,1.125 0.375,0.5625 0.5625,1.21875 0.5625,1.96875 0,1.227539 -0.480469,2.4228515 -1.441406,3.5859375 -0.960938,1.1572265 -2.396485,2.1064453 -4.300782,2.84765621 -1.907226,0.74121094 -4.300781,1.11328125 -7.183593,1.11328125 z M 66.645548,-19.30078 c 0,-3.984375 -0.152343,-7.148437 -0.457031,-9.492187 -0.304687,-2.34375 -0.852539,-4.025391 -1.640625,-5.050781 -0.791015,-1.03125 -1.883789,-1.546875 -3.28125,-1.546875 -1.40039,0 -2.560547,0.515625 -3.480469,1.546875 -0.922851,1.02539 -1.59082,2.707031 -2.003906,5.050781 -0.416015,2.34375 -0.644531,5.507812 -0.691406,9.492187 z M 80.702189,1.5624998e-6 V -0.65624844 h 0.585938 c 0.662109,0 1.353515,-0.0966797 2.074218,-0.29296875 0.717774,-0.19335941 1.327149,-0.59765621 1.828125,-1.20703121 0.506836,-0.6152344 0.761719,-1.538086 0.761719,-2.765625 V -30.527342 c 0,-1.186524 -0.263672,-2.0625 -0.785156,-2.625 -0.524414,-0.56836 -1.148438,-0.94043 -1.875,-1.113281 -0.720703,-0.178711 -1.388672,-0.269532 -2.003906,-0.269532 h -0.257813 v -0.65625 h 14.90625 v 5.648438 h 0.128906 c 0.483399,-1.444336 1.119141,-2.636719 1.910157,-3.574219 0.788086,-0.943359 1.784179,-1.655273 2.988283,-2.132812 1.20117,-0.483399 2.61328,-0.726563 4.23047,-0.726563 2.45215,0 4.32422,0.503906 5.61328,1.511719 1.28906,1.001953 1.93359,2.399414 1.93359,4.195312 0,1.883789 -0.74707,3.351563 -2.23828,4.40625 -1.48535,1.048828 -3.51562,1.570313 -6.09375,1.570313 0,-3.328125 -0.32812,-5.613281 -0.98437,-6.855469 -0.65625,-1.248047 -1.59961,-1.875 -2.82422,-1.875 -0.656253,0 -1.271488,0.175781 -1.839847,0.527344 -0.571289,0.345703 -1.063477,0.922851 -1.476563,1.734375 -0.416015,0.814453 -0.74414,1.886719 -0.984375,3.222656 -0.243164,1.330078 -0.363281,3 -0.363281,5.015625 v 17.6015626 c 0,1.227539 0.249024,2.1503906 0.75,2.765625 0.506836,0.609375 1.130859,1.0136718 1.875,1.20703121 0.741211,0.19628906 1.420899,0.29296875 2.039066,0.29296875 h 2.02734 V 1.5624998e-6 Z m 34.271481,0 V -0.65624844 h 1.45313 c 0.65625,0 1.3418,-0.0966797 2.0625,-0.29296875 0.72656,-0.19335941 1.33887,-0.59765621 1.83984,-1.20703121 0.50684,-0.6152344 0.76172,-1.538086 0.76172,-2.765625 V -34.535155 h -5.84766 v -0.65625 h 5.84766 v -2.4375 c 0,-4.069336 1.08106,-7.230468 3.24609,-9.480468 2.16211,-2.25586 5.89454,-3.386719 11.19141,-3.386719 2.40527,0 4.33008,0.219726 5.77734,0.65625 1.44434,0.439453 2.4961,1.019531 3.15235,1.746094 0.65625,0.720703 0.98437,1.564453 0.98437,2.53125 0,0.914062 -0.29882,1.68164 -0.89062,2.296875 -0.58594,0.609375 -1.48242,1.072265 -2.6836,1.382812 -1.2041,0.304688 -2.7041,0.457031 -4.5,0.457031 0,-3.202148 -0.23144,-5.405273 -0.6914,-6.609375 -0.46289,-1.201172 -1.2832,-1.804687 -2.46094,-1.804687 -1.18066,0 -2.00098,0.571289 -2.46094,1.710937 -0.46289,1.142578 -0.6914,3.219727 -0.6914,6.234375 v 6.703125 h 9.05859 v 0.65625 h -9.05859 v 29.6132816 c 0,1.227539 0.24902,2.1503906 0.75,2.765625 0.50683,0.609375 1.13086,1.0136718 1.875,1.20703121 0.75,0.19628906 1.42968,0.29296875 2.03906,0.29296875 h 3.08203 V 1.5624998e-6 Z M 160.88481,0.65625156 c -5.69532,0 -10.01368,-1.58496094 -12.94922,-4.75781246 -2.92969,-3.1699219 -4.39453,-7.6054691 -4.39453,-13.3007811 0,-6.169922 1.42089,-10.819336 4.26562,-13.945313 2.85059,-3.131836 6.8584,-4.699218 12.02344,-4.699218 4.77246,0 8.52539,1.335937 11.26172,4.007812 2.7334,2.671875 4.10156,6.609375 4.10156,11.8125 v 1.582031 h -21.53906 c 0,4.423828 0.29297,8.000977 0.8789,10.7343753 0.5918,2.7363281 1.53516,4.7285156 2.82422,5.9765625 1.29492,1.24218751 2.97071,1.86328126 5.02735,1.86328126 1.53808,0 2.92968,-0.328125 4.17187,-0.98437496 1.24805,-0.65625 2.29981,-1.7021485 3.15235,-3.140625 0.8496,-1.444336 1.40917,-3.375 1.67578,-5.7890625 0.87304,0.1816406 1.49414,0.5566406 1.86328,1.125 0.375,0.5625 0.5625,1.21875 0.5625,1.96875 0,1.227539 -0.48047,2.4228515 -1.44141,3.5859375 -0.96094,1.1572265 -2.39648,2.1064453 -4.30078,2.84765621 -1.90723,0.74121094 -4.30078,1.11328125 -7.18359,1.11328125 z M 165.20903,-19.30078 c 0,-3.984375 -0.15235,-7.148437 -0.45704,-9.492187 -0.30468,-2.34375 -0.85254,-4.025391 -1.64062,-5.050781 -0.79102,-1.03125 -1.88379,-1.546875 -3.28125,-1.546875 -1.40039,0 -2.56055,0.515625 -3.48047,1.546875 -0.92285,1.02539 -1.59082,2.707031 -2.00391,5.050781 -0.41601,2.34375 -0.64453,5.507812 -0.6914,9.492187 z m 32.17382,19.95703156 c -3.23437,0 -6.09082,-0.58007812 -8.5664,-1.73437496 -2.46973,-1.163086 -4.38282,-3.0703125 -5.74219,-5.71875 -1.35938,-2.6484375 -2.03906,-6.2021486 -2.03906,-10.6640626 0,-4.734375 0.69726,-8.443359 2.09765,-11.132812 1.40625,-2.695313 3.34278,-4.608399 5.8125,-5.742188 2.47559,-1.139648 5.31153,-1.710937 8.50782,-1.710937 2.67187,0 4.94824,0.298828 6.83203,0.890625 1.88086,0.585937 3.32226,1.417968 4.32422,2.496093 1.00781,1.072266 1.51171,2.305664 1.51171,3.703125 0,0.837891 -0.23144,1.669922 -0.6914,2.496094 -0.4541,0.829102 -1.29492,1.520508 -2.51953,2.074219 -1.22754,0.547851 -2.97657,0.820312 -5.25,0.820312 0,-3.023437 -0.13477,-5.384765 -0.39844,-7.089843 -0.2666,-1.710938 -0.73828,-2.923829 -1.41797,-3.644532 -0.67383,-0.726562 -1.60254,-1.089843 -2.78906,-1.089843 -1.43848,0 -2.59863,0.547851 -3.48047,1.640625 -0.87598,1.095703 -1.5,2.935546 -1.875,5.519531 -0.36914,2.578125 -0.55078,6.146484 -0.55078,10.699219 0,4.204101 0.27246,7.5878902 0.82031,10.1484371 0.54492,2.5546875 1.4209,4.415039 2.625,5.578125 1.20117,1.15722652 2.76856,1.73437496 4.69922,1.73437496 1.5293,0 2.90918,-0.31640625 4.13672,-0.94921876 1.22461,-0.6328125 2.25293,-1.6699219 3.08203,-3.1171875 0.83496,-1.4443359 1.38281,-3.3691406 1.64062,-5.7773437 0.70313,0.2197265 1.24805,0.6386718 1.64063,1.2539062 0.39844,0.609375 0.59766,1.3095703 0.59766,2.0976563 0,1.0957031 -0.45118,2.2001953 -1.34766,3.3164062 -0.89941,1.1191406 -2.31445,2.0478516 -4.24219,2.78906251 -1.92187,0.74121094 -4.39453,1.11328125 -7.41797,1.11328125 z m 31.13672,0 c -2.93847,0 -5.28222,-0.76464844 -7.03125,-2.29687496 -1.75195,-1.5292969 -2.625,-4.2216797 -2.625,-8.0742188 V -34.535155 h -4.92187 v -0.65625 c 2.13867,0 4.01953,-0.216797 5.63672,-0.65625 1.62304,-0.436523 3.02636,-1.139648 4.20703,-2.109375 1.09277,-0.873047 1.99804,-1.974609 2.71875,-3.304687 0.72656,-1.335938 1.28906,-2.900391 1.6875,-4.699219 h 0.65625 v 10.769531 h 8.40234 v 0.65625 h -8.40234 v 27.7734378 c 0,2.0566406 0.38965,3.5683594 1.17187,4.5351563 0.78809,0.9609375 1.94824,1.44140621 3.48047,1.44140621 0.61524,0 1.2832,-0.0644531 2.00391,-0.19921875 0.72656,-0.13183596 1.50293,-0.35156246 2.33203,-0.65624996 v 0.65624996 c -0.69727,0.3046875 -1.8457,0.65332031 -3.44531,1.04296875 -1.60254,0.3984375 -3.55957,0.59765625 -5.8711,0.59765625 z M 255.7686,1.5624998e-6 V -0.65624844 h 2.7539 c 0.65625,0 1.2334,-0.0966797 1.73438,-0.29296875 0.50683,-0.19335941 0.90234,-0.59765621 1.18359,-1.20703121 0.28711,-0.6152344 0.43359,-1.538086 0.43359,-2.765625 V -41.953123 c 0,-1.271485 -0.14648,-2.203125 -0.43359,-2.789063 -0.28125,-0.591797 -0.67676,-0.987305 -1.18359,-1.183594 -0.50098,-0.202148 -1.07813,-0.304687 -1.73438,-0.304687 h -2.7539 v -0.65625 h 22.65234 v 0.65625 h -2.75391 c -0.61816,0 -1.18066,0.09082 -1.6875,0.269531 -0.50097,0.172852 -0.90234,0.544922 -1.20703,1.113281 -0.30469,0.571289 -0.45703,1.447266 -0.45703,2.625 V -0.65624844 H 281.96 c 2.67188,0 4.83985,-0.34570316 6.50391,-1.04296876 1.66406,-0.703125 2.9209,-1.8193359 3.77344,-3.3515625 0.85839,-1.5380859 1.37402,-3.5771484 1.54687,-6.1171873 l 0.25781,-3.46875 h 0.65625 L 294.18266,1.5624998e-6 Z M 316.90238,0.65625156 c -5.25,0 -9.38671,-1.51757812 -12.41015,-4.55859376 -3.02344,-3.046875 -4.53516,-7.6552738 -4.53516,-13.8281248 0,-6.169922 1.44434,-10.763672 4.33594,-13.78125 2.88867,-3.023438 7.16016,-4.535156 12.80859,-4.535156 5.25,0 9.38086,1.511718 12.39844,4.535156 3.02344,3.017578 4.53516,7.611328 4.53516,13.78125 0,6.172851 -1.45899,10.7812498 -4.3711,13.8281248 -2.90625,3.04101564 -7.16015,4.55859376 -12.76172,4.55859376 z M 317.03129,1.5624998e-6 c 1.71094,0 3.05859,-0.5654296924998 4.04297,-1.6992187624998 0.98437,-1.1396484 1.69336,-3.0029297 2.13281,-5.5898437 0.43653,-2.5839844 0.65625,-6.0644531 0.65625,-10.4414061 0,-4.374024 -0.21972,-7.842774 -0.65625,-10.40625 -0.43945,-2.560547 -1.16015,-4.40918 -2.16797,-5.542969 -1.00781,-1.139648 -2.36425,-1.710937 -4.0664,-1.710937 -1.66407,0 -3,0.571289 -4.00782,1.710937 -1.00781,1.133789 -1.73144,2.982422 -2.16796,5.542969 -0.43946,2.563476 -0.65625,6.032226 -0.65625,10.40625 0,4.376953 0.21679,7.8574217 0.65625,10.4414061 0.43652,2.586914 1.16015,4.4501953 2.16796,5.5898437 1.00782,1.13378907 2.36133,1.6992187624998 4.06641,1.6992187624998 z M 357.15336,0.65625156 c -5.25,0 -9.38672,-1.51757812 -12.41016,-4.55859376 -3.02343,-3.046875 -4.53515,-7.6552738 -4.53515,-13.8281248 0,-6.169922 1.44433,-10.763672 4.33594,-13.78125 2.88867,-3.023438 7.16015,-4.535156 12.80859,-4.535156 5.25,0 9.38086,1.511718 12.39844,4.535156 3.02343,3.017578 4.53515,7.611328 4.53515,13.78125 0,6.172851 -1.45898,10.7812498 -4.37109,13.8281248 -2.90625,3.04101564 -7.16016,4.55859376 -12.76172,4.55859376 z M 357.28227,1.5624998e-6 c 1.71093,0 3.05859,-0.5654296924998 4.04297,-1.6992187624998 0.98437,-1.1396484 1.69336,-3.0029297 2.13281,-5.5898437 0.43652,-2.5839844 0.65625,-6.0644531 0.65625,-10.4414061 0,-4.374024 -0.21973,-7.842774 -0.65625,-10.40625 -0.43945,-2.560547 -1.16016,-4.40918 -2.16797,-5.542969 -1.00781,-1.139648 -2.36426,-1.710937 -4.06641,-1.710937 -1.66406,0 -3,0.571289 -4.00781,1.710937 -1.00781,1.133789 -1.73144,2.982422 -2.16797,5.542969 -0.43945,2.563476 -0.65625,6.032226 -0.65625,10.40625 0,4.376953 0.2168,7.8574217 0.65625,10.4414061 0.43653,2.586914 1.16016,4.4501953 2.16797,5.5898437 1.00781,1.13378907 2.36133,1.6992187624998 4.06641,1.6992187624998 z m 21.21093,0 V -0.65624844 h 0.78516 c 0.66211,0 1.35352,-0.0966797 2.07422,-0.29296875 0.71777,-0.19335941 1.32715,-0.59765621 1.82812,-1.20703121 0.50684,-0.6152344 0.76172,-1.538086 0.76172,-2.765625 V -45.234373 c 0,-1.186524 -0.26367,-2.0625 -0.78515,-2.625 -0.52442,-0.56836 -1.14844,-0.94043 -1.875,-1.113282 -0.72071,-0.178711 -1.38867,-0.269531 -2.00391,-0.269531 h -0.78516 v -0.65625 h 15.4336 v 28.359375 c 0,0.65625 0,1.3125 0,1.96875 0,0.65625 0,1.306641 0,1.945313 0,0.632812 -0.0234,1.297851 -0.0703,1.992187 l 12.67968,-13.324219 c 0.47461,-0.521484 0.86719,-0.990234 1.17188,-1.40625 0.31055,-0.421875 0.53027,-0.802734 0.65625,-1.148437 0.13183,-0.351563 0.19922,-0.65918 0.19922,-0.925781 0,-0.788086 -0.60352,-1.335938 -1.80469,-1.640625 -1.2041,-0.304688 -3.16113,-0.457032 -5.87109,-0.457032 v -0.65625 h 15.89062 v 0.65625 c -0.96094,0 -1.84863,0.123047 -2.66016,0.363282 -0.81445,0.234375 -1.72265,0.74707 -2.73046,1.535156 -1.00782,0.791015 -2.29688,2.015625 -3.86719,3.679687 l -5.32031,5.578125 12.21093,18.1875003 c 0.87305,1.3125 1.58496,2.2910156 2.13282,2.9296875 0.54492,0.6328125 1.00195,1.0605469 1.37109,1.27734376 0.375,0.21972656 0.73828,0.328125 1.08984,0.328125 h 0.14063 V 1.5624998e-6 h -0.92578 c -2.40821,0 -4.42969,-0.0527343725 -6.07032,-0.1640625024998 -1.64062,-0.10839844 -3.03222,-0.34570312 -4.17187,-0.71484375 -1.14258,-0.37500001 -2.13867,-0.95507811 -2.98828,-1.74609371 -0.85254,-0.788086 -1.7168,-1.8632813 -2.58985,-3.2226563 l -6.76171,-10.6289063 -1.71094,1.769531 v 9.7851566 c 0,1.227539 0.24902,2.1503906 0.75,2.765625 0.50683,0.609375 1.13086,1.0136718 1.875,1.20703121 0.74121,0.19628906 1.4209,0.29296875 2.03906,0.29296875 h 0.78516 V 1.5624998e-6 Z m 0,0"
       style="fill:#231f20;fill-opacity:1;fill-rule:nonzero;stroke:none"
       aria-label="Perfect Look"
       transform="matrix(1.3333333,0,0,1.3333333,287.6588,699.10547)"
       inkscape:export-filename="logo.png"
       inkscape:export-xdpi="96"
       inkscape:export-ydpi="96" />
    <path
       id="path56"
       d="m 10.699728,0.31591875 c -1.3124999,0 -2.4023436,-0.36621094 -3.2695311,-1.1015625 C 6.5688688,-1.5268547 5.9712125,-2.742675 5.6372281,-4.430175 H 5.5669156 V -4.875e-4 H 0.59816563 V -0.31689375 H 1.0434781 c 0.694336,0 1.2216797,-0.0615234 1.5820313,-0.1875 0.3574219,-0.12304688 0.6035156,-0.36328125 0.7382812,-0.71484375 0.140625,-0.3515625 0.2109375,-0.8496094 0.2109375,-1.5 V -21.270019 c 0,-0.679687 -0.070312,-1.195312 -0.2109375,-1.546875 -0.1347656,-0.357422 -0.375,-0.600586 -0.7265625,-0.726562 -0.3457031,-0.131836 -0.8320312,-0.199219 -1.4648437,-0.199219 H 0.69191563 v -0.316406 H 5.6020719 v 6.046875 c 0,0.571289 -0.00879,1.365234 -0.023437,2.378906 -0.00879,1.007812 -0.020508,2.083008 -0.035156,3.222656 h 0.058594 c 0.3193359,-1.599609 0.9082031,-2.80664 1.7695312,-3.621094 0.8671875,-0.811523 2.0185547,-1.21875 3.4570309,-1.21875 2.044922,0 3.574219,0.720704 4.582032,2.15625 1.013672,1.429688 1.523437,3.632813 1.523437,6.6093755 0,1.921875 -0.251953,3.5390625 -0.75,4.8515625 -0.492187,1.3066406 -1.204101,2.2910156 -2.132812,2.953125 -0.931641,0.66503906 -2.047852,0.99609375 -3.351563,0.99609375 z M 10.441916,-0.16455 c 0.990234,0 1.816406,-0.29296875 2.472656,-0.8789063 0.65625,-0.5917968 1.139648,-1.5117187 1.453125,-2.7539062 0.319336,-1.2421875 0.480469,-2.8242188 0.480469,-4.7460938 0,-1.9599607 -0.146485,-3.5449217 -0.433594,-4.7578127 -0.28125,-1.21875 -0.75,-2.100586 -1.40625,-2.648437 -0.65625,-0.553711 -1.520508,-0.832032 -2.589844,-0.832032 -1.6874999,0 -2.9179686,0.708985 -3.6914061,2.121094 -0.7734375,1.415039 -1.1601563,3.462891 -1.1601563,6.1406252 0,2.765625 0.3779297,4.8515625 1.1367188,6.2578125 C 7.4682828,-0.86181563 8.7134,-0.16455 10.441916,-0.16455 Z m 17.217773,0.48046875 c -2.173828,0 -3.884766,-0.75292969 -5.132812,-2.26171875 -1.242188,-1.5058594 -1.863282,-3.6328125 -1.863282,-6.375 0,-2.976563 0.574219,-5.203125 1.722657,-6.679688 1.154296,-1.476562 2.789062,-2.214843 4.898437,-2.214843 1.921875,0 3.424805,0.665039 4.511719,1.992187 1.083984,1.330078 1.628906,3.246094 1.628906,5.7539065 v 0.609375 H 22.761252 c 0,2.0859375 0.1875,3.7792969 0.5625,5.0742187 0.380859,1.2978516 0.940429,2.2558594 1.675781,2.8710938 0.741211,0.609375 1.652344,0.9140625 2.730469,0.9140625 0.796875,0 1.5,-0.140625 2.109375,-0.421875 0.615234,-0.28710938 1.127929,-0.703125 1.535156,-1.2421875 0.413086,-0.5390625 0.717773,-1.1865234 0.914062,-1.9453125 0.1875,0.064453 0.322266,0.1699219 0.410157,0.3164062 0.08496,0.1494141 0.128906,0.3164063 0.128906,0.5039063 0,0.4072266 -0.19336,0.8525391 -0.574219,1.3359375 -0.383789,0.48632812 -0.955078,0.90234375 -1.710937,1.25390625 -0.758789,0.34277344 -1.719727,0.515625 -2.882813,0.515625 z m 3.609375,-9.49218755 c 0,-1.7109372 -0.146484,-3.1347652 -0.433594,-4.2773442 -0.28125,-1.139648 -0.723632,-1.998046 -1.324218,-2.578125 -0.603516,-0.577148 -1.368164,-0.867187 -2.296875,-0.867187 -0.984375,0 -1.798829,0.290039 -2.4375,0.867187 -0.632813,0.580079 -1.101563,1.438477 -1.40625,2.578125 -0.304688,1.142579 -0.500977,2.566407 -0.585938,4.2773442 z M 41.62258,0.31591875 c -1.541016,0 -2.739258,-0.40429688 -3.597657,-1.21875 C 37.172384,-1.7143547 36.74758,-2.8715813 36.74758,-4.3715813 c 0,-1.640625 0.600586,-2.8505859 1.804687,-3.6328125 1.201172,-0.7792968 3.026367,-1.2128906 5.472656,-1.3007812 l 2.636719,-0.09375 v -2.378906 c 0,-1.116211 -0.07617,-2.053711 -0.222656,-2.8125 -0.149414,-0.75586 -0.477539,-1.330078 -0.984375,-1.722657 -0.509766,-0.389648 -1.271484,-0.585937 -2.285156,-0.585937 -1.368164,0 -2.261719,0.37207 -2.683594,1.113281 -0.421875,0.735352 -0.632813,1.872071 -0.632813,3.410156 -0.594726,0 -1.040039,-0.123046 -1.335937,-0.375 -0.290039,-0.257812 -0.433594,-0.626953 -0.433594,-1.113281 0,-0.670898 0.19336,-1.259765 0.585938,-1.769531 0.389648,-0.506836 0.972656,-0.896484 1.746093,-1.171875 0.779297,-0.272461 1.722657,-0.410156 2.824219,-0.410156 1.921875,0 3.307617,0.427734 4.160156,1.277343 0.84961,0.85254 1.277344,2.16504 1.277344,3.9375 v 9.2812505 c 0,0.6328125 0.0498,1.125 0.152344,1.4765625 0.108398,0.34570312 0.298828,0.5859375 0.574219,0.7265625 0.28125,0.13476562 0.682617,0.19921875 1.207031,0.19921875 h 0.128906 V -4.875e-4 h -3.925781 v -3.4804688 h -0.05859 c -0.210937,0.7207032 -0.550781,1.3652344 -1.019531,1.9335938 -0.462891,0.57128906 -1.037109,1.02539062 -1.722656,1.359375 -0.688477,0.33398437 -1.485352,0.50390625 -2.390625,0.50390625 z m 0.445312,-0.4453125 c 0.867188,0 1.652344,-0.22851563 2.355469,-0.69140625 0.708984,-0.46875 1.259766,-1.0693359 1.652344,-1.8046875 0.389648,-0.7412109 0.585937,-1.5029297 0.585937,-2.2851563 v -4.171875 l -2.320312,0.09375 c -2.0625,0.087891 -3.500977,0.5244141 -4.3125,1.3125 -0.814453,0.7910157 -1.21875,1.9658204 -1.21875,3.5273438 0,0.8291016 0.120117,1.5410156 0.363281,2.1328125 0.240234,0.5859375 0.597656,1.04882812 1.066406,1.3828125 0.47461,0.33691406 1.083985,0.50390625 1.828125,0.50390625 z m 19.086914,0.4453125 c -1.798828,0 -3.140625,-0.49511719 -4.03125,-1.48828125 -0.884765,-0.9902344 -1.324218,-2.5546875 -1.324218,-4.6875 v -8.1679685 c 0,-0.732422 -0.06445,-1.283203 -0.1875,-1.652344 -0.125977,-0.375 -0.369141,-0.626953 -0.726563,-0.761719 -0.360352,-0.140625 -0.899414,-0.210937 -1.617187,-0.210937 h -0.445313 v -0.316407 h 5.003906 v 11.2382817 c 0,1.2421875 0.09668,2.2792969 0.292969,3.1054688 0.202148,0.8203125 0.574219,1.4414062 1.113281,1.86328125 0.539063,0.421875 1.271485,0.6328125 2.203125,0.6328125 1.054688,0 1.927735,-0.26074219 2.625,-0.78515625 0.694336,-0.5302734 1.212891,-1.2773438 1.558594,-2.2382813 0.351563,-0.9609375 0.527344,-2.0625 0.527344,-3.3046875 v -7.5703122 c 0,-0.732422 -0.06445,-1.283203 -0.1875,-1.652344 -0.125977,-0.375 -0.369141,-0.626953 -0.726563,-0.761719 -0.360351,-0.140625 -0.887695,-0.210937 -1.582031,-0.210937 h -0.316406 v -0.316407 h 4.839844 v 14.0625005 c 0,0.7119141 0.06152,1.2597656 0.1875,1.640625 0.131835,0.38378906 0.36914,0.63867187 0.714843,0.76171875 0.351563,0.12597656 0.84375,0.1875 1.476563,0.1875 h 0.539062 V -4.875e-4 h -4.78125 V -4.148925 h -0.05859 c -0.19629,0.8671875 -0.462891,1.5878906 -0.796875,2.15625 -0.336915,0.5712891 -0.738282,1.02539062 -1.207032,1.359375 -0.46289,0.33691406 -0.958008,0.58007812 -1.488281,0.7265625 -0.524414,0.14648437 -1.060547,0.22265625 -1.605469,0.22265625 z m 17.686524,0 c -1.429688,0 -2.460938,-0.36328125 -3.09375,-1.08984375 -0.632813,-0.7265625 -0.949219,-1.9746094 -0.949219,-3.75 v -12.128906 h -2.4375 v -0.316407 c 0.670898,0 1.248047,-0.0498 1.734375,-0.152343 0.483398,-0.108399 0.884766,-0.28711 1.207031,-0.539063 0.357422,-0.295898 0.626953,-0.703125 0.808594,-1.21875 0.178711,-0.515625 0.307617,-1.163086 0.386719,-1.945312 h 0.316406 v 3.855468 h 4.242187 v 0.316407 h -4.242187 v 12.8906247 c 0,1.3300782 0.199219,2.2792969 0.597656,2.8476563 0.404297,0.57128906 1.042969,0.85546875 1.910156,0.85546875 0.310547,0 0.615235,-0.01757813 0.914063,-0.05859375 0.295898,-0.046875 0.612305,-0.12304688 0.949219,-0.234375 v 0.31640625 c -0.298828,0.10839844 -0.66211,0.19335937 -1.089844,0.2578125 -0.430664,0.0615234 -0.849609,0.09375 -1.253906,0.09375 z m 4.532226,6.96093745 c 1.327149,0 2.402344,-0.102539 3.222657,-0.3046875 0.826171,-0.196289 1.49121,-0.5332031 1.992187,-1.0078125 0.506836,-0.477539 0.955078,-1.133789 1.347656,-1.96875 0.389649,-0.8291015 0.820313,-1.875 1.289063,-3.14062495 L 84.639181,-15.000488 c -0.1875,-0.483398 -0.36914,-0.84375 -0.539062,-1.078125 -0.172852,-0.234375 -0.369141,-0.386718 -0.585938,-0.457031 -0.219726,-0.07617 -0.533203,-0.117187 -0.9375,-0.117187 h -0.375 v -0.316407 h 6.644532 v 0.316407 h -0.46875 c -0.618165,0 -1.060547,0.07617 -1.324219,0.222656 -0.257813,0.149414 -0.386719,0.404297 -0.386719,0.761719 0,0.1875 0.04981,0.439453 0.152344,0.75 0.108398,0.304687 0.27539,0.74414 0.503906,1.3125 l 2.507813,6.2343747 c 0.164062,0.4394532 0.351562,0.9199219 0.5625,1.4414063 0.210937,0.515625 0.416015,1.0400391 0.621093,1.5703125 0.202149,0.5244141 0.392578,1.0195312 0.574219,1.4882812 0.178711,0.4628907 0.331055,0.8730469 0.457031,1.2304688 0.249024,-0.7177734 0.495117,-1.4443359 0.738282,-2.1796875 0.240234,-0.7412109 0.492187,-1.4707031 0.75,-2.1914063 l 2.566406,-7.7226567 c 0.123047,-0.404296 0.225586,-0.761718 0.304687,-1.066406 0.08496,-0.304687 0.128907,-0.550781 0.128907,-0.738281 0,-0.380859 -0.125977,-0.662109 -0.375,-0.84375 -0.251954,-0.178711 -0.723633,-0.269531 -1.417969,-0.269531 h -1.335938 v -0.316407 h 6.046875 v 0.316407 h -0.1875 c -0.533203,0 -0.949218,0.04395 -1.253906,0.128906 -0.304687,0.08789 -0.544922,0.27832 -0.714844,0.574219 -0.164062,0.298828 -0.351562,0.738281 -0.5625,1.324218 L 91.916525,-0.16455 c -0.524414,1.5849609 -1.007812,2.8828125 -1.453125,3.890625 -0.445312,1.0136719 -0.949219,1.8046875 -1.511719,2.3671875 -0.55664,0.5625 -1.262695,0.9521484 -2.121093,1.171875 -0.85254,0.2167969 -1.942383,0.328125 -3.269532,0.328125 h -0.1875 z M 113.37649,0.31591875 c -1.09571,0 -2.0127,-0.15234375 -2.75391,-0.45703125 -0.73535,-0.3046875 -1.2832,-0.703125 -1.64063,-1.1953125 -0.36035,-0.4980469 -0.53906,-1.0664063 -0.53906,-1.6992188 0,-0.4453125 0.0732,-0.7998046 0.22266,-1.0664062 0.14648,-0.2636719 0.33398,-0.4482422 0.5625,-0.5507813 0.23437,-0.1083984 0.45703,-0.1640625 0.66797,-0.1640625 0,1.0546875 0.0967,1.9394532 0.29297,2.6484375 0.20214,0.703125 0.5625,1.24218755 1.07812,1.61718755 0.52149,0.36914062 1.23633,0.55078125 2.14453,0.55078125 1.17774,0 2.08887,-0.33398438 2.73047,-1.0078125 0.64746,-0.6796875 0.97266,-1.5966797 0.97266,-2.7539063 0,-0.6328125 -0.10254,-1.1601562 -0.30469,-1.5820312 -0.19629,-0.421875 -0.55664,-0.8115234 -1.07813,-1.171875 -0.51562,-0.3574219 -1.24804,-0.7617188 -2.1914,-1.2070313 -1.22754,-0.609375 -2.18848,-1.1601562 -2.88281,-1.6523437 -0.69727,-0.4980469 -1.19239,-1.0371095 -1.48829,-1.6171875 -0.29882,-0.585938 -0.44531,-1.268555 -0.44531,-2.050781 0,-1.289063 0.45117,-2.302735 1.35938,-3.046875 0.90527,-0.75 2.15039,-1.125 3.73828,-1.125 0.99023,0 1.81933,0.149414 2.48437,0.445312 0.66211,0.290039 1.15137,0.66211 1.46485,1.113281 0.31933,0.454102 0.48047,0.934571 0.48047,1.441407 0,0.486328 -0.13477,0.875976 -0.39844,1.171875 -0.25781,0.298828 -0.66504,0.445312 -1.21875,0.445312 0,-1.623047 -0.24317,-2.745117 -0.72656,-3.363281 -0.48633,-0.624023 -1.22461,-0.9375 -2.21485,-0.9375 -0.73535,0 -1.34765,0.125977 -1.83984,0.375 -0.48633,0.251953 -0.84961,0.621094 -1.08985,1.113281 -0.24316,0.486328 -0.36328,1.075196 -0.36328,1.769531 0,0.697266 0.15235,1.283204 0.45703,1.757813 0.31055,0.477539 0.77344,0.896484 1.38282,1.253906 0.60937,0.351563 1.35937,0.7382815 2.25,1.1601565 1.13965,0.5097656 2.02734,1.0136719 2.66015,1.5117187 0.63282,0.4921875 1.06934,1.0195313 1.3125,1.5820313 0.24024,0.5566406 0.36328,1.2041016 0.36328,1.9453125 0,1.5 -0.49804,2.6689453 -1.48828,3.50390625 -0.99316,0.82910156 -2.31445,1.2421875 -3.96093,1.2421875 z m 14.01855,0 c -1.42969,0 -2.46094,-0.36328125 -3.09375,-1.08984375 -0.63281,-0.7265625 -0.94922,-1.9746094 -0.94922,-3.75 v -12.128906 h -2.4375 v -0.316407 c 0.6709,0 1.24805,-0.0498 1.73438,-0.152343 0.4834,-0.108399 0.88476,-0.28711 1.20703,-0.539063 0.35742,-0.295898 0.62695,-0.703125 0.80859,-1.21875 0.17871,-0.515625 0.30762,-1.163086 0.38672,-1.945312 h 0.31641 v 3.855468 h 4.24218 v 0.316407 h -4.24218 v 12.8906247 c 0,1.3300782 0.19922,2.2792969 0.59765,2.8476563 0.4043,0.57128906 1.04297,0.85546875 1.91016,0.85546875 0.31055,0 0.61523,-0.01757813 0.91406,-0.05859375 0.2959,-0.046875 0.61231,-0.12304688 0.94922,-0.234375 v 0.31640625 c -0.29883,0.10839844 -0.66211,0.19335937 -1.08984,0.2578125 -0.43067,0.0615234 -0.84961,0.09375 -1.25391,0.09375 z m 12.06738,0 c -1.79882,0 -3.14062,-0.49511719 -4.03125,-1.48828125 -0.88476,-0.9902344 -1.32422,-2.5546875 -1.32422,-4.6875 v -8.1679685 c 0,-0.732422 -0.0645,-1.283203 -0.1875,-1.652344 -0.12597,-0.375 -0.36914,-0.626953 -0.72656,-0.761719 -0.36035,-0.140625 -0.89941,-0.210937 -1.61719,-0.210937 h -0.44531 v -0.316407 h 5.00391 v 11.2382817 c 0,1.2421875 0.0967,2.2792969 0.29297,3.1054688 0.20215,0.8203125 0.57422,1.4414062 1.11328,1.86328125 0.53906,0.421875 1.27148,0.6328125 2.20312,0.6328125 1.05469,0 1.92774,-0.26074219 2.625,-0.78515625 0.69434,-0.5302734 1.21289,-1.2773438 1.5586,-2.2382813 0.35156,-0.9609375 0.52734,-2.0625 0.52734,-3.3046875 v -7.5703122 c 0,-0.732422 -0.0644,-1.283203 -0.1875,-1.652344 -0.12598,-0.375 -0.36914,-0.626953 -0.72656,-0.761719 -0.36035,-0.140625 -0.8877,-0.210937 -1.58203,-0.210937 h -0.31641 v -0.316407 h 4.83984 v 14.0625005 c 0,0.7119141 0.0615,1.2597656 0.1875,1.640625 0.13184,0.38378906 0.36915,0.63867187 0.71485,0.76171875 0.35156,0.12597656 0.84375,0.1875 1.47656,0.1875 h 0.53906 V -4.875e-4 h -4.78125 V -4.148925 h -0.0586 c -0.19629,0.8671875 -0.46289,1.5878906 -0.79688,2.15625 -0.33691,0.5712891 -0.73828,1.02539062 -1.20703,1.359375 -0.46289,0.33691406 -0.958,0.58007812 -1.48828,0.7265625 -0.52441,0.14648437 -1.06054,0.22265625 -1.60547,0.22265625 z m 18.79981,0 c -1.3125,0 -2.4375,-0.33105469 -3.375,-0.99609375 -0.9375,-0.6621094 -1.6582,-1.6552734 -2.15625,-2.9765625 -0.49219,-1.3183594 -0.73828,-2.9296875 -0.73828,-4.828125 0,-1.8984375 0.22558,-3.4951175 0.67968,-4.7929685 0.45118,-1.294922 1.13672,-2.279297 2.05079,-2.953125 0.91992,-0.679688 2.06836,-1.019532 3.44531,-1.019532 1.45312,0 2.61621,0.392579 3.49219,1.171875 0.87304,0.782227 1.45898,1.962891 1.75781,3.539063 h 0.0703 c -0.0234,-0.585938 -0.0439,-1.22168 -0.0586,-1.910156 -0.009,-0.685547 -0.0117,-1.324219 -0.0117,-1.910157 0,-0.591796 0,-1.057617 0,-1.394531 v -3.515625 c 0,-0.679687 -0.0644,-1.195312 -0.1875,-1.546875 -0.12598,-0.357422 -0.36328,-0.600586 -0.71485,-0.726562 -0.3457,-0.131836 -0.83203,-0.199219 -1.46484,-0.199219 h -0.42187 v -0.316406 h 4.8164 v 21.3398435 c 0,0.6503906 0.0615,1.1484375 0.1875,1.5 0.12305,0.3515625 0.36914,0.59179687 0.73828,0.71484375 0.375,0.12597656 0.90821,0.1875 1.60547,0.1875 h 0.35156 V -4.875e-4 h -4.875 v -4.5 h -0.0703 c -0.33691,1.5878906 -0.9375,2.7861328 -1.80469,3.59765625 -0.86132,0.81445312 -1.96582,1.21875 -3.3164,1.21875 z m 0.3164,-0.48046875 c 1.62305,-0.0146484 2.8418,-0.72070313 3.65625,-2.1210938 0.81153,-1.40625 1.21875,-3.4599609 1.21875,-6.1640625 0,-1.8574217 -0.16406,-3.3984377 -0.49218,-4.6171877 -0.32813,-1.224609 -0.85254,-2.15039 -1.57032,-2.777344 -0.7207,-0.624023 -1.68164,-0.9375 -2.88281,-0.9375 -1.05469,0 -1.91015,0.298829 -2.5664,0.890625 -0.65039,0.594727 -1.12207,1.50586 -1.41797,2.730469 -0.29883,1.21875 -0.44532,2.789063 -0.44532,4.7109377 0,1.8984375 0.167,3.4658204 0.50391,4.6992188 0.34277,1.2363281 0.84961,2.1416016 1.52344,2.71875 0.67969,0.58007812 1.50293,0.8671875 2.47265,0.8671875 z m 11.17383,0.1640625 v -0.31640625 h 0.63282 c 0.71777,0 1.25683,-0.0615234 1.61718,-0.1875 0.35742,-0.12304688 0.60059,-0.36328125 0.72657,-0.71484375 0.12304,-0.3515625 0.1875,-0.8496094 0.1875,-1.5 V -14.180175 c 0,-0.670898 -0.0645,-1.186523 -0.1875,-1.546875 -0.12598,-0.357422 -0.36329,-0.600586 -0.71485,-0.726563 -0.35156,-0.131835 -0.84375,-0.199218 -1.47656,-0.199218 h -0.31641 v -0.316407 h 4.72266 V -2.78955 c 0,0.6796875 0.0615,1.2011719 0.1875,1.5585937 0.12305,0.36035161 0.37793,0.60351567 0.76172,0.72656255 0.38086,0.12597656 0.9082,0.1875 1.58203,0.1875 h 0.66797 V -4.875e-4 Z m 4.01953,-20.3789065 c -0.29882,0 -0.54785,-0.108398 -0.75,-0.328125 -0.19629,-0.225586 -0.29296,-0.635742 -0.29296,-1.230469 0,-0.568359 0.0967,-0.963867 0.29296,-1.183593 0.20215,-0.216797 0.45118,-0.328125 0.75,-0.328125 0.2959,0 0.542,0.111328 0.73829,0.328125 0.20214,0.219726 0.30468,0.615234 0.30468,1.183593 0,0.594727 -0.10254,1.004883 -0.30468,1.230469 -0.19629,0.219727 -0.44239,0.328125 -0.73829,0.328125 z m 13.4502,20.69531275 c -2.13281,0 -3.81445,-0.72070313 -5.03906,-2.16796875 -1.21875,-1.4443359 -1.82813,-3.65625 -1.82813,-6.6328125 0,-2.9531255 0.58887,-5.1445315 1.76953,-6.5742185 1.18653,-1.435547 2.92969,-2.15625 5.22657,-2.15625 2.14746,0 3.82324,0.708984 5.02734,2.121093 1.20117,1.41504 1.80469,3.618165 1.80469,6.6093755 0,2.9765625 -0.5918,5.1884766 -1.76953,6.6328125 -1.18067,1.44726562 -2.91211,2.16796875 -5.19141,2.16796875 z m 0.0352,-0.31640625 c 1.17773,0 2.12109,-0.30761719 2.82421,-0.92578125 0.70899,-0.62402345 1.22168,-1.55859375 1.53516,-2.80078125 0.31934,-1.2480469 0.48047,-2.8359375 0.48047,-4.7578125 0,-1.9980465 -0.16406,-3.6152345 -0.49219,-4.8515625 -0.32812,-1.233398 -0.84961,-2.135742 -1.55859,-2.707031 -0.70313,-0.56836 -1.61426,-0.855469 -2.73047,-0.855469 -1.18066,0 -2.12988,0.290039 -2.84766,0.867187 -0.7207,0.580079 -1.24218,1.485352 -1.57031,2.71875 -0.32227,1.236329 -0.48047,2.844727 -0.48047,4.8281255 0,1.9453125 0.1582,3.5478516 0.48047,4.8046875 0.32813,1.2509766 0.85547,2.1767578 1.58203,2.77734375 0.73242,0.60351562 1.6582,0.90234375 2.77735,0.90234375 z m 0,0"
       style="fill:#231f20;fill-opacity:1;fill-rule:nonzero;stroke:none"
       aria-label="beauty studio"
       transform="matrix(1.3333333,0,0,1.3333333,436.38213,754.8444)" />
    <path
       id="path57"
       d="m 2.1084078,0.00143281 v -0.65625 h 2.0390625 c 0.8349609,0 1.5703125,-0.13183594 2.203125,-0.39843751 0.6386719,-0.2636719 1.125,-0.7148437 1.453125,-1.3476562 0.328125,-0.6386719 0.4921875,-1.5527344 0.4921875,-2.7421875 V -42.174348 c 0,-1.139649 -0.1757812,-2.006836 -0.5273437,-2.601563 -0.3457032,-0.591797 -0.8261719,-1.010742 -1.4414063,-1.253906 -0.6181641,-0.240235 -1.3447266,-0.363281 -2.1796875,-0.363281 H 2.1084078 v -0.65625 H 21.67872 c 5.882813,0 10.242188,1.242187 13.078125,3.726562 2.835938,2.484375 4.253907,5.879883 4.253907,10.183594 0,1.977539 -0.339844,3.855469 -1.019532,5.636719 -0.679687,1.77539 -1.757812,3.375 -3.234375,4.804687 -1.470703,1.429688 -3.404297,2.551758 -5.800781,3.363281 -2.390625,0.814453 -5.302734,1.21875 -8.730469,1.21875 h -2.964843 v 13.1718753 c 0,1.1425781 0.175781,2.0214844 0.527343,2.6367188 0.351563,0.618164 0.84375,1.0488281 1.476563,1.2890625 0.638672,0.24316402 1.376953,0.36328121 2.214844,0.36328121 h 2.835937 v 0.65625 z M 19.569345,-18.783723 c 1.757813,0 3.260742,-0.249024 4.511719,-0.75 1.248047,-0.506836 2.267578,-1.31836 3.058594,-2.4375 0.796875,-1.125 1.371094,-2.572266 1.722656,-4.347657 0.351563,-1.78125 0.527344,-3.925781 0.527344,-6.433593 0,-3.28711 -0.28711,-5.920899 -0.855469,-7.898438 -0.571289,-1.974609 -1.517578,-3.424805 -2.835937,-4.347656 -1.32129,-0.928711 -3.035157,-1.394531 -5.144532,-1.394531 h -3.292968 v 27.609375 z M 81.974619,0.00143281 v -0.65625 h 2.039062 c 0.834961,0 1.570313,-0.13183594 2.203125,-0.39843751 0.638672,-0.2636719 1.125,-0.7148437 1.453125,-1.3476562 0.328125,-0.6386719 0.492188,-1.5527344 0.492188,-2.7421875 V -42.033723 c 0,-1.186524 -0.164063,-2.088868 -0.492188,-2.707032 -0.328125,-0.615234 -0.814453,-1.045898 -1.453125,-1.289062 -0.632812,-0.240235 -1.368164,-0.363281 -2.203125,-0.363281 h -2.039062 v -0.65625 h 21.351561 v 0.65625 h -2.05078 c -0.8291,0 -1.552734,0.123046 -2.167969,0.363281 -0.618164,0.243164 -1.089844,0.673828 -1.417969,1.289062 -0.328125,0.618164 -0.492187,1.497071 -0.492187,2.636719 v 41.44921881 h 10.605465 c 2.5459,0 4.59961,-0.35156251 6.16407,-1.05468751 1.56152,-0.703125 2.73632,-1.8427734 3.52734,-3.421875 0.78809,-1.5849609 1.26855,-3.7177734 1.44141,-6.3984373 l 0.19921,-2.964844 h 0.66797 L 119.2754,0.00143281 Z m 0,0"
       style="fill:#231f20;fill-opacity:1;fill-rule:nonzero;stroke:none"
       aria-label="PL"
       transform="matrix(1.3333333,0,0,1.3333333,487.46613,553.71293)" />
    <path
       id="path58"
       d="M 0,0 V -107.934"
       style="fill:none;stroke:#231f20;stroke-width:0.838;stroke-linecap:butt;stroke-linejoin:miter;stroke-miterlimit:10;stroke-dasharray:none;stroke-opacity:1"
       transform="matrix(1.3333333,0,0,-1.3333333,567.08333,448.862)"
       clip-path="url(#clipPath59)" />
  </g>
</svg>
